<?xml version="1.0" encoding="UTF-8" standalone="no"?>
<!DOCTYPE svg PUBLIC "-//W3C//DTD SVG 1.1//EN" "http://www.w3.org/Graphics/SVG/1.1/DTD/svg11.dtd">
<svg xmlns="http://www.w3.org/2000/svg" version="1.1" viewBox="0.00 0.00 512.00 514.00">
<path fill="#3a67a2" d="
  M 151.25 28.96
  C 194.86 23.92 231.66 21.10 272.49 23.85
  C 336.48 28.15 398.89 37.15 460.55 55.16
  Q 461.04 55.31 461.04 55.82
  Q 460.92 139.59 461.17 223.23
  C 461.19 229.47 461.31 236.19 460.51 242.24
  C 456.13 275.55 444.43 307.40 425.48 335.14
  C 412.03 354.84 397.49 374.91 380.42 391.67
  Q 319.23 451.79 242.78 490.75
  Q 242.34 490.98 241.91 490.74
  Q 190.71 462.38 144.00 427.27
  C 110.06 401.76 82.70 374.24 59.76 339.57
  C 32.65 298.61 23.32 255.08 23.28 206.43
  Q 23.22 131.34 23.26 56.25
  A 0.90 0.90 0.0 0 1 23.71 55.47
  Q 26.02 54.13 26.96 53.85
  Q 84.51 36.68 151.25 28.96
  Z
  M 444.46 62.54
  C 331.37 30.25 211.89 24.67 93.43 48.65
  Q 66.60 54.08 39.87 62.44
  Q 39.23 62.64 39.23 63.32
  Q 39.22 129.70 39.45 196.44
  C 39.62 247.81 51.91 294.32 85.91 333.68
  C 99.16 349.02 112.96 365.57 128.35 378.76
  C 162.81 408.30 202.47 433.50 241.89 455.33
  A 0.95 0.92 -43.5 0 0 242.77 455.34
  Q 300.96 426.09 350.10 383.37
  Q 356.46 377.84 360.42 373.67
  Q 379.78 353.30 401.06 328.32
  C 421.20 304.69 434.65 274.02 441.55 243.72
  Q 444.96 228.72 444.98 218.74
  Q 445.10 141.02 444.96 63.19
  A 0.68 0.67 8.0 0 0 444.46 62.54
  Z"
/>
<path fill="#3a67a2" d="
  M 345.19 282.66
  C 393.83 203.79 342.04 101.47 249.19 95.83
  C 182.26 91.76 122.22 145.15 119.99 212.71
  Q 118.71 251.27 139.92 284.14
  Q 142.20 287.68 143.87 290.75
  A 3.48 3.48 0.0 0 1 143.52 294.60
  C 140.61 298.19 132.70 311.04 127.66 304.37
  C 75.29 234.99 95.59 135.16 171.63 92.67
  C 264.93 40.53 382.15 105.34 385.39 212.73
  Q 386.76 257.80 362.28 296.01
  C 360.15 299.34 357.28 300.47 354.30 297.43
  Q 349.60 292.64 345.05 287.70
  C 343.96 286.51 344.29 284.11 345.19 282.66
  Z"
/>
<path fill="#3a67a2" d="
  M 306.99 186.79
  C 280.55 136.80 209.17 133.65 179.53 182.57
  C 166.83 203.53 165.40 228.00 175.16 250.67
  C 175.65 251.80 175.76 253.82 174.98 254.84
  Q 170.06 261.25 164.63 267.21
  C 161.20 270.97 157.84 270.31 155.65 266.01
  C 138.48 232.21 141.13 192.35 164.30 161.87
  C 184.83 134.87 218.27 119.95 252.23 123.69
  C 316.87 130.80 357.28 197.56 331.98 258.49
  C 330.04 263.17 327.14 266.62 322.36 261.96
  Q 317.27 257.00 312.51 251.73
  C 310.14 249.10 310.31 247.63 311.45 244.18
  Q 321.41 214.04 306.99 186.79
  Z"
/>
<path fill="#dd463b" d="
  M 261.91 191.10
  C 278.69 203.13 280.94 228.50 266.54 244.01
  A 0.98 0.98 0.0 0 1 264.84 243.30
  C 265.10 237.48 265.46 230.55 264.29 225.30
  C 260.74 209.51 242.64 201.99 228.85 211.36
  C 217.88 218.82 218.52 231.12 219.28 243.23
  A 0.44 0.44 0.0 0 1 218.58 243.62
  C 211.46 238.61 208.29 227.46 208.18 219.39
  C 207.79 191.22 238.78 174.52 261.91 191.10
  Z"
/>
<path fill="#58978a" d="
  M 228.42 325.23
  C 227.51 294.34 227.74 263.47 227.74 232.57
  Q 227.74 226.69 229.10 223.63
  C 235.13 210.10 255.40 214.13 256.00 229.31
  Q 257.02 255.04 257.83 280.77
  Q 257.85 281.43 258.38 281.05
  C 260.53 279.52 262.49 277.72 264.81 276.80
  Q 275.95 272.39 283.37 282.04
  A 0.66 0.66 0.0 0 0 284.25 282.19
  C 291.07 277.78 302.32 278.44 305.28 287.38
  A 1.49 1.48 68.2 0 0 307.32 288.26
  C 316.17 284.09 324.94 290.61 325.42 299.82
  Q 326.02 311.24 327.31 350.67
  Q 327.69 362.29 326.41 367.73
  C 323.49 380.06 314.34 392.28 300.99 394.47
  C 285.89 396.95 268.48 396.60 254.06 389.47
  C 247.25 386.10 239.16 379.77 231.80 374.95
  Q 227.07 371.86 220.14 364.12
  Q 207.91 350.45 195.78 336.68
  C 188.18 328.03 171.48 327.95 181.24 312.44
  C 188.43 301.02 205.77 308.00 214.42 313.58
  C 218.84 316.43 223.25 321.63 227.88 325.49
  Q 228.44 325.96 228.42 325.23
  Z"
/>
</svg>
