<?xml version="1.0" encoding="UTF-8" standalone="no"?>
<!DOCTYPE svg PUBLIC "-//W3C//DTD SVG 1.1//EN" "http://www.w3.org/Graphics/SVG/1.1/DTD/svg11.dtd">
<svg xmlns="http://www.w3.org/2000/svg" version="1.1" viewBox="0.00 0.00 228.00 228.00">
<g stroke-width="2.00" fill="none" stroke-linecap="butt">
<path stroke="#8ba7c9" vector-effect="non-scaling-stroke" d="
  M 172.91 168.64
  Q 171.66 169.10 170.01 171.05"
/>
<path stroke="#8ba7c9" vector-effect="non-scaling-stroke" d="
  M 51.79 170.77
  Q 51.14 169.36 49.91 168.74"
/>
<path stroke="#8ba7c9" vector-effect="non-scaling-stroke" d="
  M 65.28 166.11
  L 64.61 166.25
  Q 63.99 166.38 64.48 166.79
  Q 76.57 177.03 89.77 185.17"
/>
<path stroke="#8ba7c9" vector-effect="non-scaling-stroke" d="
  M 134.40 185.17
  Q 147.20 176.65 159.02 166.14"
/>
<path stroke="#8ba7c9" vector-effect="non-scaling-stroke" d="
  M 100.20 106.46
  L 96.03 106.47"
/>
<path stroke="#8ba7c9" vector-effect="non-scaling-stroke" d="
  M 95.34 106.90
  L 95.55 115.70
  Q 95.56 116.25 95.02 116.25
  L 85.79 116.25
  Q 85.37 116.25 85.30 116.66
  L 84.94 118.76"
/>
<path stroke="#8ba7c9" vector-effect="non-scaling-stroke" d="
  M 110.10 96.13
  L 104.31 96.02
  A 0.64 0.64 0.0 0 0 103.66 96.67
  L 103.79 106.01
  Q 103.80 106.74 103.07 106.67
  L 100.93 106.46"
/>
<path stroke="#8ba7c9" vector-effect="non-scaling-stroke" d="
  M 139.23 123.69
  L 139.29 121.17"
/>
<path stroke="#143f78" stroke-opacity="0.647" vector-effect="non-scaling-stroke" d="
  M 139.29 121.17
  Q 141.15 120.45 139.27 119.08"
/>
<path stroke="#8ba7c9" vector-effect="non-scaling-stroke" d="
  M 139.27 119.08
  Q 139.47 117.76 139.09 116.69
  Q 138.94 116.25 138.47 116.25
  L 129.25 116.25
  A 0.50 0.50 0.0 0 1 128.75 115.75
  L 128.75 107.25
  Q 128.75 106.77 128.26 106.76
  L 121.75 106.74"
/>
<path stroke="#143f78" stroke-opacity="0.647" vector-effect="non-scaling-stroke" d="
  M 121.75 106.74
  Q 121.88 105.44 120.57 104.75"
/>
<path stroke="#8ba7c9" vector-effect="non-scaling-stroke" d="
  M 120.57 104.75
  L 120.95 96.95"
/>
<path stroke="#143f78" stroke-opacity="0.647" vector-effect="non-scaling-stroke" d="
  M 141.42 85.42
  Q 141.18 89.29 141.22 90.75
  Q 141.41 97.62 142.08 90.78
  Q 142.19 89.68 141.75 85.06"
/>
<path stroke="#c8c8cc" stroke-opacity="0.647" vector-effect="non-scaling-stroke" d="
  M 120.57 104.75
  Q 120.18 107.09 121.75 106.74"
/>
<path stroke="#c8c8cc" stroke-opacity="0.647" vector-effect="non-scaling-stroke" d="
  M 139.27 119.08
  L 139.29 121.17"
/>
<path stroke="#8ba7c9" vector-effect="non-scaling-stroke" d="
  M 85.18 136.90
  L 85.16 119.90"
/>
<path stroke="#a9221b" stroke-opacity="0.647" vector-effect="non-scaling-stroke" d="
  M 96.33 73.51
  L 98.88 72.02
  A 0.18 0.18 0.0 0 0 98.71 71.71
  L 95.72 73.20"
/>
<path stroke="#a9221b" stroke-opacity="0.647" vector-effect="non-scaling-stroke" d="
  M 91.78 67.52
  L 94.23 65.44
  A 0.56 0.56 0.0 0 1 95.15 65.97
  Q 94.90 67.27 95.54 68.47
  A 0.07 0.07 0.0 0 0 95.67 68.43
  L 95.44 64.96
  A 0.85 0.84 -24.9 0 0 93.99 64.43
  L 91.56 66.94"
/>
<path stroke="#773b56" vector-effect="non-scaling-stroke" d="
  M 81.49 59.78
  L 90.30 59.66
  Q 90.88 59.65 90.54 59.19
  Q 90.34 58.93 89.94 58.70"
/>
<path stroke="#773b56" vector-effect="non-scaling-stroke" d="
  M 91.34 57.90
  Q 91.76 59.10 93.49 58.64"
/>
<path stroke="#a9221b" stroke-opacity="0.647" vector-effect="non-scaling-stroke" d="
  M 152.19 38.56
  Q 150.91 38.87 150.74 38.97
  Q 148.73 40.03 150.96 39.50
  L 153.77 38.83"
/>
<path stroke="#a9221b" stroke-opacity="0.647" vector-effect="non-scaling-stroke" d="
  M 136.61 64.88
  L 135.16 65.85
  Q 134.46 66.31 135.28 66.18
  Q 136.38 66.00 137.19 65.31"
/>
<path stroke="#143f78" stroke-opacity="0.647" vector-effect="non-scaling-stroke" d="
  M 169.72 107.73
  C 169.74 106.07 170.33 103.91 169.39 102.48
  Q 169.25 102.27 169.25 102.53
  L 169.25 107.50
  Q 169.25 107.64 169.28 107.68
  Q 169.37 107.80 169.47 107.87
  Q 169.72 108.03 169.72 107.73"
/>
<path stroke="#143f78" stroke-opacity="0.647" vector-effect="non-scaling-stroke" d="
  M 159.87 112.64
  L 159.93 102.79
  Q 159.94 102.13 159.29 102.25
  L 158.71 102.37
  Q 157.91 102.52 158.50 103.09
  Q 159.01 103.57 159.03 104.25
  Q 159.13 108.21 158.57 112.10
  Q 158.51 112.56 158.94 112.73
  Q 159.12 112.80 159.32 112.93
  Q 159.86 113.30 159.87 112.64"
/>
<path stroke="#143f78" stroke-opacity="0.647" vector-effect="non-scaling-stroke" d="
  M 162.62 117.88
  C 165.64 117.37 166.09 119.30 168.39 120.36
  C 169.24 120.75 169.88 120.54 170.45 119.86
  A 0.22 0.21 -75.2 0 0 170.25 119.51
  L 168.64 119.80
  A 0.84 0.84 0.0 0 1 167.80 119.46
  Q 165.69 116.42 162.15 117.36"
/>
<path stroke="#9dc3bb" vector-effect="non-scaling-stroke" d="
  M 116.9059 100.5990
  A 0.70 0.70 0.0 0 0 116.1998 99.9051
  L 108.2001 99.9749
  A 0.70 0.70 0.0 0 0 107.5063 100.6810
  L 107.5141 101.5810
  A 0.70 0.70 0.0 0 0 108.2202 102.2749
  L 116.2199 102.2051
  A 0.70 0.70 0.0 0 0 116.9137 101.4990
  L 116.9059 100.5990"
/>
<path stroke="#9dc3bb" vector-effect="non-scaling-stroke" d="
  M 125.33 120.00
  A 0.33 0.33 0.0 0 1 125.00 119.67
  L 124.99 110.83
  A 0.33 0.33 0.0 0 0 124.66 110.50
  L 117.03 110.50
  A 0.33 0.33 0.0 0 1 116.70 110.16
  L 116.86 103.59
  A 0.33 0.33 0.0 0 0 116.53 103.25
  L 107.83 103.25
  A 0.33 0.33 0.0 0 0 107.50 103.58
  L 107.50 110.17
  A 0.33 0.33 0.0 0 1 107.17 110.50
  L 99.86 110.50
  A 0.33 0.33 0.0 0 0 99.53 110.83
  L 99.41 119.67
  A 0.33 0.33 0.0 0 1 99.08 120.00
  L 89.33 120.00
  A 0.33 0.33 0.0 0 0 89.00 120.33
  L 89.00 139.73
  A 0.33 0.33 0.0 0 0 89.47 140.03
  L 93.56 138.15
  A 0.33 0.33 0.0 0 0 93.75 137.85
  L 93.75 125.58
  A 0.33 0.33 0.0 0 1 94.08 125.25
  L 101.65 125.25
  A 0.33 0.33 0.0 0 1 101.98 125.58
  L 102.03 133.79
  A 0.33 0.33 0.0 0 0 102.49 134.09
  L 107.98 131.68
  A 0.33 0.33 0.0 0 0 108.18 131.36
  L 107.93 125.59
  A 0.33 0.33 0.0 0 1 108.26 125.25
  L 115.92 125.25
  A 0.33 0.33 0.0 0 1 116.25 125.58
  L 116.25 131.35
  A 0.33 0.33 0.0 0 0 116.44 131.65
  L 121.78 134.13
  A 0.33 0.33 0.0 0 0 122.25 133.83
  L 122.25 125.58
  A 0.33 0.33 0.0 0 1 122.58 125.25
  L 130.21 125.25
  A 0.33 0.33 0.0 0 1 130.54 125.58
  L 130.48 137.82
  A 0.33 0.33 0.0 0 0 130.67 138.12
  L 134.78 139.98
  A 0.33 0.33 0.0 0 0 135.25 139.68
  L 135.25 120.33
  A 0.33 0.33 0.0 0 0 134.92 120.00
  L 125.33 120.00"
/>
<path stroke="#c8c8cc" stroke-opacity="0.647" vector-effect="non-scaling-stroke" d="
  M 98.4853 129.8353
  A 0.56 0.56 0.0 0 0 97.9302 129.2704
  L 97.8702 129.2699
  A 0.56 0.56 0.0 0 0 97.3053 129.8250
  L 97.2547 135.6247
  A 0.56 0.56 0.0 0 0 97.8098 136.1896
  L 97.8698 136.1901
  A 0.56 0.56 0.0 0 0 98.4347 135.6350
  L 98.4853 129.8353"
/>
<path stroke="#9dc3bb" vector-effect="non-scaling-stroke" d="
  M 112.32 142.00
  C 114.21 147.48 114.01 154.41 114.33 160.24
  Q 114.36 160.79 114.91 160.87
  C 123.05 161.98 127.72 164.99 134.80 170.82
  Q 135.21 171.16 135.57 170.76
  C 140.38 165.57 142.76 156.12 144.97 149.38
  Q 145.14 148.87 144.65 148.64
  L 112.61 134.12
  A 1.11 1.11 0.0 0 0 111.67 134.12
  L 79.77 148.59
  Q 79.20 148.85 79.38 149.45
  C 81.49 156.21 83.91 165.46 88.74 170.78
  Q 89.10 171.18 89.52 170.83
  C 96.67 164.88 101.17 162.17 109.53 160.81
  A 0.57 0.56 85.9 0 0 110.01 160.25
  Q 110.11 151.06 111.76 142.04
  Q 111.96 140.94 112.32 142.00"
/>
<path stroke="#9dc3bb" vector-effect="non-scaling-stroke" d="
  M 97.59 174.62
  C 94.79 176.95 90.07 176.97 87.55 174.96
  Q 82.08 170.61 75.12 171.29
  A 0.11 0.11 0.0 0 0 75.10 171.50
  C 78.77 172.67 81.09 173.81 84.14 176.52
  C 89.27 181.09 94.79 182.75 100.96 178.80
  C 108.56 173.94 113.74 172.16 121.61 177.83
  C 134.50 187.13 139.52 173.63 149.36 171.59
  A 0.13 0.13 0.0 0 0 149.35 171.34
  C 145.97 170.89 143.00 171.39 139.98 173.02
  C 135.92 175.22 130.95 178.57 126.84 174.97
  Q 112.36 162.28 97.59 174.62"
/>
</g>
<path fill="#164e92" d="
  M 172.91 168.64
  Q 171.66 169.10 170.01 171.05
  Q 144.33 196.45 112.10 212.94
  Q 111.65 213.17 111.20 212.93
  Q 78.76 195.33 51.79 170.77
  Q 51.14 169.36 49.91 168.74
  C 33.33 150.18 22.47 131.44 20.48 106.79
  Q 20.16 102.90 20.06 86.81
  Q 19.89 59.16 20.04 31.47
  Q 20.05 30.91 20.57 30.75
  C 78.89 12.79 143.87 14.22 202.11 30.73
  Q 202.58 30.86 202.60 31.36
  C 203.23 53.04 203.02 74.71 203.03 96.36
  Q 203.04 107.21 202.09 113.11
  C 198.69 134.31 187.47 151.00 173.36 167.50
  A 1.58 1.56 72.7 0 0 173.03 168.14
  L 172.91 168.64
  Z
  M 65.28 166.11
  L 64.61 166.25
  Q 63.99 166.38 64.48 166.79
  Q 76.57 177.03 89.77 185.17
  L 110.92 198.07
  A 1.33 1.31 -42.3 0 0 112.20 198.12
  Q 123.59 192.34 134.40 185.17
  Q 147.20 176.65 159.02 166.14
  C 176.74 147.64 190.08 132.94 195.02 108.84
  Q 196.28 102.72 196.27 93.06
  Q 196.25 63.83 196.25 34.56
  Q 196.25 34.06 195.76 33.92
  C 142.32 18.95 80.79 17.07 27.33 33.92
  Q 26.84 34.08 26.83 34.59
  Q 26.53 73.83 26.87 95.31
  Q 27.29 121.77 42.92 143.56
  Q 47.87 150.46 62.50 165.17
  C 63.36 166.03 64.13 166.06 65.28 166.11
  Z"
/>
<path fill="#d7281a" d="
  M 96.33 73.51
  L 98.88 72.02
  A 0.18 0.18 0.0 0 0 98.71 71.71
  L 95.72 73.20
  C 92.49 73.62 90.41 70.27 91.78 67.52
  L 94.23 65.44
  A 0.56 0.56 0.0 0 1 95.15 65.97
  Q 94.90 67.27 95.54 68.47
  A 0.07 0.07 0.0 0 0 95.67 68.43
  L 95.44 64.96
  A 0.85 0.84 -24.9 0 0 93.99 64.43
  L 91.56 66.94
  Q 68.22 65.37 45.00 63.94
  Q 44.36 63.90 44.34 63.71
  A 1.08 1.07 -6.8 0 1 45.31 62.48
  Q 61.83 61.07 77.80 61.54
  C 89.62 61.88 100.65 61.04 112.13 60.95
  A 0.53 0.53 0.0 0 1 112.51 61.86
  L 108.37 66.09
  A 0.04 0.04 0.0 0 0 108.42 66.16
  Q 112.46 64.21 114.95 60.49
  A 0.59 0.59 0.0 0 0 114.43 59.57
  Q 105.27 60.08 96.03 60.46
  C 90.70 60.68 84.07 61.34 77.86 60.75
  Q 77.78 60.75 77.81 60.64
  Q 77.82 60.61 77.81 60.58
  Q 77.81 60.52 77.86 60.52
  Q 79.84 60.56 81.49 59.78
  L 90.30 59.66
  Q 90.88 59.65 90.54 59.19
  Q 90.34 58.93 89.94 58.70
  Q 90.46 58.11 91.34 57.90
  Q 91.76 59.10 93.49 58.64
  Q 101.47 59.96 109.61 58.71
  Q 110.10 58.63 110.45 58.27
  C 122.52 45.91 135.36 29.73 154.73 31.26
  Q 155.09 31.29 154.86 31.60
  A 0.54 0.52 -69.5 0 1 154.42 31.81
  C 151.38 31.69 141.08 32.80 142.10 37.08
  Q 142.19 37.46 142.58 37.40
  C 145.55 36.92 146.78 34.92 150.43 34.17
  C 154.80 33.28 161.87 32.15 164.37 34.82
  C 166.26 36.83 165.53 41.12 164.51 43.23
  Q 159.22 54.22 148.84 60.22
  A 0.60 0.60 0.0 0 0 148.98 61.31
  L 175.10 68.62
  A 0.37 0.37 0.0 0 1 175.09 69.34
  Q 174.06 69.60 173.13 69.17
  Q 171.90 68.58 171.67 68.52
  Q 159.10 65.38 146.52 62.18
  Q 144.84 61.76 143.54 63.26
  Q 143.19 63.66 143.71 63.75
  Q 158.91 66.63 173.97 69.83
  Q 175.15 70.08 175.67 69.33
  Q 175.92 68.97 176.34 69.08
  L 183.44 71.03
  A 0.60 0.60 0.0 0 1 183.41 72.19
  Q 182.56 72.37 181.50 72.24
  Q 167.05 70.52 152.57 68.89
  Q 152.09 68.83 151.84 69.25
  Q 149.92 72.44 146.50 73.32
  C 145.73 73.52 144.52 73.28 143.66 73.89
  Q 143.27 74.18 142.78 74.21
  C 139.38 74.48 137.16 71.86 138.70 68.59
  A 0.57 0.56 -74.7 0 1 139.27 68.26
  Q 140.60 68.36 141.27 67.25
  A 0.60 0.60 0.0 0 0 140.30 66.55
  L 139.65 67.31
  Q 139.29 67.71 138.83 67.44
  Q 137.32 66.54 136.28 66.99
  C 123.73 72.34 109.10 77.64 95.41 78.59
  Q 92.16 78.81 94.18 76.25
  L 96.33 73.51
  Z
  M 152.19 38.56
  Q 150.91 38.87 150.74 38.97
  Q 148.73 40.03 150.96 39.50
  L 153.77 38.83
  L 161.72 38.00
  A 0.52 0.52 0.0 0 1 162.28 38.66
  C 159.00 50.72 147.23 59.49 136.61 64.88
  L 135.16 65.85
  Q 134.46 66.31 135.28 66.18
  Q 136.38 66.00 137.19 65.31
  C 148.46 60.36 164.02 50.25 164.38 36.85
  Q 164.40 36.29 163.84 36.29
  Q 157.83 36.31 152.19 38.56
  Z
  M 134.6405 37.2349
  A 0.28 0.28 0.0 0 0 134.2467 37.1935
  L 121.3927 47.6025
  A 0.28 0.28 0.0 0 0 121.3513 47.9963
  L 121.4395 48.1051
  A 0.28 0.28 0.0 0 0 121.8333 48.1465
  L 134.6873 37.7375
  A 0.28 0.28 0.0 0 0 134.7287 37.3437
  L 134.6405 37.2349
  Z
  M 101.32 65.89
  A 1.06 1.06 0.0 0 0 100.26 64.83
  A 1.06 1.06 0.0 0 0 99.20 65.89
  A 1.06 1.06 0.0 0 0 100.26 66.95
  A 1.06 1.06 0.0 0 0 101.32 65.89
  Z
  M 147.99 67.41
  A 0.99 0.91 0.0 0 0 147.00 66.50
  A 0.99 0.91 0.0 0 0 146.01 67.41
  A 0.99 0.91 0.0 0 0 147.00 68.32
  A 0.99 0.91 0.0 0 0 147.99 67.41
  Z"
/>
<path fill="#0c0e1e" fill-opacity="0.294" d="
  M 152.19 38.56
  L 153.77 38.83
  L 150.96 39.50
  Q 148.73 40.03 150.74 38.97
  Q 150.91 38.87 152.19 38.56
  Z"
/>
<path fill="#164e92" d="
  M 93.49 58.64
  Q 91.76 59.10 91.34 57.90
  Q 91.86 56.74 93.49 58.64
  Z"
/>
<path fill="#164e92" d="
  M 89.94 58.70
  Q 90.34 58.93 90.54 59.19
  Q 90.88 59.65 90.30 59.66
  L 81.49 59.78
  Q 82.62 58.12 83.25 58.75
  Q 86.71 58.91 89.94 58.70
  Z"
/>
<path fill="#0c0e1e" fill-opacity="0.294" d="
  M 91.78 67.52
  Q 91.48 67.16 91.56 66.94
  L 93.99 64.43
  A 0.85 0.84 -24.9 0 1 95.44 64.96
  L 95.67 68.43
  A 0.07 0.07 0.0 0 1 95.54 68.47
  Q 94.90 67.27 95.15 65.97
  A 0.56 0.56 0.0 0 0 94.23 65.44
  L 91.78 67.52
  Z"
/>
<path fill="#0c0e1e" fill-opacity="0.294" d="
  M 136.61 64.88
  Q 136.87 65.32 137.19 65.31
  Q 136.38 66.00 135.28 66.18
  Q 134.46 66.31 135.16 65.85
  L 136.61 64.88
  Z"
/>
<path fill="#0c0e1e" fill-opacity="0.294" d="
  M 96.33 73.51
  Q 96.17 73.21 95.72 73.20
  L 98.71 71.71
  A 0.18 0.18 0.0 0 1 98.88 72.02
  L 96.33 73.51
  Z"
/>
<path fill="#164e92" d="
  M 139.23 123.69
  L 139.29 121.17
  Q 141.15 120.45 139.27 119.08
  Q 139.47 117.76 139.09 116.69
  Q 138.94 116.25 138.47 116.25
  L 129.25 116.25
  A 0.50 0.50 0.0 0 1 128.75 115.75
  L 128.75 107.25
  Q 128.75 106.77 128.26 106.76
  L 121.75 106.74
  Q 121.88 105.44 120.57 104.75
  L 120.95 96.95
  L 126.70 94.58
  Q 127.22 94.36 127.34 93.81
  Q 128.06 90.47 131.66 91.36
  A 1.38 1.35 37.9 0 0 132.63 91.25
  C 135.92 89.52 137.05 86.17 141.42 85.42
  Q 141.18 89.29 141.22 90.75
  Q 141.41 97.62 142.08 90.78
  Q 142.19 89.68 141.75 85.06
  C 144.26 83.44 146.56 82.06 149.75 82.03
  Q 157.34 81.96 164.97 82.01
  Q 165.45 82.02 165.86 82.27
  L 171.73 85.85
  Q 172.18 86.13 172.35 86.63
  L 173.19 89.19
  Q 173.36 89.69 173.13 90.17
  C 171.74 93.15 174.21 94.50 176.06 96.16
  A 1.21 1.19 20.6 0 1 176.46 97.03
  C 176.53 100.90 176.76 104.67 176.60 108.51
  Q 176.45 111.90 179.38 114.01
  A 0.90 0.88 18.4 0 1 179.75 114.73
  L 179.75 120.76
  Q 179.75 121.29 179.25 121.49
  C 177.92 122.01 177.55 122.88 177.88 124.33
  Q 178.79 128.40 177.32 132.25
  Q 177.13 132.74 176.61 132.77
  C 174.49 132.88 172.80 133.79 170.81 133.70
  Q 161.08 133.22 151.37 132.51
  Q 150.93 132.47 150.79 132.90
  Q 150.52 133.81 151.31 133.92
  Q 158.63 134.91 162.18 135.55
  A 0.30 0.30 0.0 0 1 162.34 136.05
  Q 162.05 136.34 161.50 136.25
  Q 151.21 134.45 140.93 132.56
  Q 140.41 132.46 140.46 131.94
  Q 140.73 128.99 140.71 126.04
  Q 140.68 123.12 139.23 123.69
  Z
  M 171.3279 88.9255
  A 0.98 0.98 0.0 0 0 170.4445 87.8576
  L 159.9115 86.8620
  A 0.98 0.98 0.0 0 0 158.8436 87.7454
  L 158.6121 90.1945
  A 0.98 0.98 0.0 0 0 159.4955 91.2624
  L 170.0285 92.2580
  A 0.98 0.98 0.0 0 0 171.0964 91.3746
  L 171.3279 88.9255
  Z
  M 138.02 95.25
  C 141.41 95.22 140.22 89.65 139.84 87.66
  Q 139.73 87.08 139.20 87.32
  C 136.58 88.45 137.51 92.37 137.50 94.74
  Q 137.50 95.26 138.02 95.25
  Z
  M 156.67 87.93
  A 0.67 0.67 0.0 0 0 156.00 87.26
  L 143.68 87.26
  A 0.67 0.67 0.0 0 0 143.01 87.93
  L 143.01 90.59
  A 0.67 0.67 0.0 0 0 143.68 91.26
  L 156.00 91.26
  A 0.67 0.67 0.0 0 0 156.67 90.59
  L 156.67 87.93
  Z
  M 133.95 92.08
  L 133.67 95.43
  Q 133.56 96.67 134.56 95.93
  Q 136.39 94.56 135.69 91.92
  A 0.89 0.88 -50.1 0 0 133.95 92.08
  Z
  M 169.75 100.50
  L 169.75 95.17
  A 0.81 0.80 9.7 0 0 169.21 94.41
  L 164.54 92.73
  A 0.78 0.78 0.0 0 0 163.50 93.47
  L 163.50 98.40
  Q 163.50 98.99 162.91 98.98
  L 160.22 98.92
  Q 159.48 98.91 159.49 98.16
  L 159.51 93.96
  Q 159.52 92.02 157.67 92.63
  L 153.05 94.15
  A 0.80 0.80 0.0 0 0 152.50 94.91
  L 152.50 104.77
  Q 152.50 105.61 153.16 105.09
  Q 154.45 104.08 154.27 102.31
  A 0.70 0.70 0.0 0 1 154.96 101.54
  L 159.70 101.48
  Q 160.44 101.47 160.46 102.20
  L 160.67 110.12
  Q 160.70 111.09 161.65 110.88
  L 165.65 109.97
  Q 166.27 109.83 166.28 109.19
  L 166.30 102.68
  A 1.26 1.26 0.0 0 1 167.33 101.45
  Q 171.05 100.76 171.78 103.96
  Q 171.89 104.43 172.08 104.88
  L 172.87 106.79
  Q 172.97 107.02 173.21 107.04
  Q 174.21 107.14 174.54 108.22
  A 0.92 0.49 61.0 0 0 175.68 108.96
  Q 175.92 108.42 175.44 108.01
  A 0.09 0.03 16.8 0 1 175.41 107.99
  Q 172.89 106.18 172.33 102.70
  Q 172.03 100.91 170.24 100.97
  Q 169.75 100.99 169.75 100.50
  Z
  M 161.75 93.59
  A 0.78 0.76 31.0 0 0 160.86 93.80
  Q 160.29 94.48 160.82 95.19
  A 0.94 0.94 0.0 0 0 162.35 94.11
  Q 162.10 93.74 161.75 93.59
  Z
  M 162.31 96.94
  Q 162.15 95.97 160.88 96.28
  A 0.69 0.69 0.0 0 0 160.56 97.44
  L 160.97 97.84
  A 0.80 0.80 0.0 0 0 162.09 97.86
  Q 162.75 97.22 162.31 96.94
  Z
  M 169.72 107.73
  C 169.74 106.07 170.33 103.91 169.39 102.48
  Q 169.25 102.27 169.25 102.53
  L 169.25 107.50
  Q 169.25 107.64 169.28 107.68
  Q 169.37 107.80 169.47 107.87
  Q 169.72 108.03 169.72 107.73
  Z
  M 159.87 112.64
  L 159.93 102.79
  Q 159.94 102.13 159.29 102.25
  L 158.71 102.37
  Q 157.91 102.52 158.50 103.09
  Q 159.01 103.57 159.03 104.25
  Q 159.13 108.21 158.57 112.10
  Q 158.51 112.56 158.94 112.73
  Q 159.12 112.80 159.32 112.93
  Q 159.86 113.30 159.87 112.64
  Z
  M 147.76 108.14
  L 133.04 110.62
  Q 132.74 110.67 132.75 110.97
  Q 132.75 111.12 132.75 111.29
  Q 132.74 111.86 133.30 111.79
  Q 137.78 111.18 142.25 110.45
  C 143.98 110.17 146.63 110.92 148.22 108.91
  A 0.48 0.48 0.0 0 0 147.76 108.14
  Z
  M 171.11 110.65
  Q 172.37 110.18 173.16 110.78
  Q 173.62 111.13 173.99 110.70
  L 174.56 110.04
  Q 175.00 109.53 174.37 109.30
  Q 172.30 108.51 170.06 109.06
  Q 169.63 109.17 169.61 109.62
  L 169.47 113.79
  Q 169.45 114.24 169.81 114.49
  Q 171.81 115.93 174.30 115.14
  A 0.50 0.50 0.0 0 0 174.17 114.16
  L 170.46 114.01
  A 0.36 0.35 34.4 0 1 170.33 113.33
  L 171.22 112.94
  A 0.40 0.40 0.0 0 0 171.40 112.34
  L 170.83 111.48
  Q 170.44 110.89 171.11 110.65
  Z
  M 154.72 110.14
  L 156.51 110.78
  A 0.62 0.61 -82.8 0 0 157.33 110.14
  Q 157.24 109.17 156.01 109.06
  Q 152.83 108.79 150.39 109.68
  A 0.49 0.49 0.0 0 0 150.52 110.62
  L 152.05 110.74
  A 0.48 0.48 0.0 0 1 152.50 111.22
  L 152.50 112.25
  A 0.67 0.67 0.0 0 0 153.05 112.91
  Q 155.22 113.32 157.27 112.57
  Q 157.95 112.32 157.44 111.81
  L 157.19 111.56
  Q 156.75 111.13 156.31 111.56
  L 155.55 112.33
  Q 154.93 112.94 154.50 112.19
  L 153.89 111.13
  A 0.69 0.69 0.0 0 1 154.72 110.14
  Z
  M 145.18 114.22
  L 148.25 111.07
  Q 148.42 110.89 148.19 110.81
  Q 148.05 110.77 147.92 110.72
  A 0.35 0.34 30.7 0 0 147.56 110.81
  L 144.44 113.95
  A 0.43 0.43 0.0 0 0 144.54 114.62
  Q 144.99 114.86 145.05 114.48
  Q 145.08 114.33 145.18 114.22
  Z
  M 172.39 112.38
  Q 172.22 112.51 172.23 112.58
  A 0.93 0.86 -40.8 0 0 173.94 112.64
  Q 174.17 112.11 173.78 111.62
  A 0.50 0.49 43.8 0 0 172.99 111.63
  L 172.58 112.19
  Q 172.50 112.30 172.39 112.38
  Z
  M 178.25 114.74
  L 178.25 120.34
  Q 178.25 120.76 178.66 120.77
  Q 178.94 120.77 178.97 120.51
  C 179.14 118.88 179.42 113.91 177.40 112.86
  Q 176.73 112.51 176.91 113.24
  Q 177.08 113.95 177.79 114.14
  Q 178.25 114.27 178.25 114.74
  Z
  M 168.5909 113.7596
  A 0.27 0.27 0.0 0 0 168.3157 113.4948
  L 151.0989 113.8254
  A 0.27 0.27 0.0 0 0 150.8341 114.1005
  L 150.8491 114.8804
  A 0.27 0.27 0.0 0 0 151.1243 115.1452
  L 168.3411 114.8146
  A 0.27 0.27 0.0 0 0 168.6059 114.5395
  L 168.5909 113.7596
  Z
  M 143.78 130.11
  L 142.80 116.71
  A 0.60 0.59 -31.2 0 0 141.70 116.44
  C 140.93 117.66 142.03 119.82 141.13 121.65
  A 0.91 0.90 36.0 0 0 141.30 122.68
  L 141.82 123.19
  A 1.25 1.23 -69.6 0 1 142.18 123.99
  Q 142.43 127.61 142.19 131.22
  Q 142.15 131.80 142.41 132.10
  Q 142.78 132.51 143.36 132.46
  Q 144.00 132.40 144.00 131.76
  L 144.00 131.27
  A 0.54 0.54 0.0 0 1 144.73 130.76
  L 145.94 131.21
  Q 146.52 131.42 146.25 131.98
  L 146.07 132.36
  A 0.61 0.60 -76.5 0 0 146.60 133.23
  L 148.26 133.26
  A 0.87 0.86 70.7 0 0 148.94 131.84
  C 146.64 129.09 147.62 126.15 147.46 122.93
  Q 147.44 122.44 146.99 122.25
  L 145.03 121.43
  Q 144.50 121.21 144.50 121.79
  L 144.50 129.77
  Q 144.50 129.87 144.42 129.95
  L 144.13 130.24
  Q 143.81 130.56 143.78 130.11
  Z
  M 155.91 117.94
  Q 156.51 116.99 155.67 116.28
  A 0.89 0.89 0.0 0 0 154.46 117.59
  L 154.93 118.05
  Q 155.49 118.61 155.91 117.94
  Z
  M 170.12 116.41
  Q 169.25 116.95 169.72 117.76
  A 0.79 0.61 24.8 0 0 171.10 117.45
  L 170.70 116.58
  A 0.41 0.40 -28.3 0 0 170.12 116.41
  Z
  M 162.15 117.36
  Q 160.42 119.23 158.16 120.22
  Q 157.78 120.39 157.44 120.14
  L 156.36 119.33
  Q 155.64 118.80 156.08 119.58
  C 157.90 122.84 161.22 119.29 162.62 117.88
  C 165.64 117.37 166.09 119.30 168.39 120.36
  C 169.24 120.75 169.88 120.54 170.45 119.86
  A 0.22 0.21 -75.2 0 0 170.25 119.51
  L 168.64 119.80
  A 0.84 0.84 0.0 0 1 167.80 119.46
  Q 165.69 116.42 162.15 117.36
  Z
  M 154.09 126.79
  L 149.36 125.55
  Q 148.66 125.36 148.63 126.09
  C 148.39 130.81 151.56 131.70 155.66 131.73
  Q 164.17 131.80 172.69 131.52
  Q 177.54 131.36 176.85 126.71
  A 0.45 0.45 0.0 0 0 176.36 126.33
  L 170.54 126.88
  Q 169.87 126.94 169.76 126.28
  L 169.12 122.44
  A 0.66 0.65 -47.6 0 0 167.82 122.50
  L 167.45 127.12
  Q 167.39 127.90 166.62 128.02
  Q 162.63 128.67 158.71 127.75
  Q 158.09 127.60 157.98 126.98
  L 157.07 122.04
  A 0.60 0.60 0.0 0 0 155.88 122.06
  L 155.34 125.95
  A 1.00 1.00 0.0 0 1 154.09 126.79
  Z"
/>
<path fill="#0c0e1e" fill-opacity="0.294" d="
  M 141.75 85.06
  Q 142.19 89.68 142.08 90.78
  Q 141.41 97.62 141.22 90.75
  Q 141.18 89.29 141.42 85.42
  Q 141.42 85.69 141.75 85.06
  Z"
/>
<path fill="#164e92" d="
  M 100.20 106.46
  L 96.03 106.47
  L 96.09 101.30
  A 0.61 0.61 0.0 0 0 94.88 101.17
  Q 94.29 104.24 95.34 106.90
  L 95.55 115.70
  Q 95.56 116.25 95.02 116.25
  L 85.79 116.25
  Q 85.37 116.25 85.30 116.66
  L 84.94 118.76
  Q 84.68 118.26 84.23 118.10
  C 82.25 117.43 80.85 121.07 80.46 122.70
  Q 79.98 124.77 77.97 123.62
  Q 77.65 123.44 77.98 123.27
  L 79.10 122.69
  A 1.38 1.37 31.9 0 0 78.49 120.09
  Q 73.78 120.01 69.43 121.20
  A 1.08 1.08 0.0 0 0 69.72 123.32
  L 76.75 123.26
  A 0.18 0.04 -0.0 0 1 76.93 123.30
  Q 76.93 123.33 76.93 123.35
  Q 76.94 123.51 76.94 123.51
  L 67.03 123.83
  Q 66.38 123.85 66.58 123.22
  Q 69.16 115.43 68.73 111.48
  C 68.47 109.07 66.13 109.25 64.23 109.12
  Q 56.44 108.59 48.67 109.57
  Q 48.04 109.66 48.41 109.14
  Q 49.65 107.38 51.52 106.34
  A 0.92 0.91 75.6 0 0 51.99 105.54
  L 52.01 100.92
  A 0.66 0.66 0.0 0 1 52.72 100.26
  L 53.60 100.32
  Q 54.25 100.37 54.25 101.03
  L 54.25 103.99
  A 0.55 0.54 80.5 0 0 54.97 104.51
  Q 55.52 104.32 55.94 103.94
  Q 56.37 103.54 56.96 103.53
  L 83.31 102.91
  Q 83.81 102.89 83.97 102.42
  L 85.99 96.28
  A 0.66 0.66 0.0 0 0 85.37 95.41
  Q 72.70 95.24 60.07 96.40
  A 2.01 2.01 0.0 0 0 58.32 97.86
  L 56.92 102.96
  Q 56.80 103.38 56.54 103.04
  Q 56.37 102.81 56.50 102.49
  C 57.24 100.67 57.58 99.70 57.65 97.43
  C 57.77 93.56 62.10 93.41 64.86 92.59
  Q 65.35 92.45 65.56 91.99
  Q 67.48 87.78 72.50 87.03
  C 79.19 86.04 90.38 84.69 95.47 87.42
  Q 96.52 87.98 96.65 89.16
  C 96.84 90.94 97.91 105.95 97.92 105.96
  Q 98.10 106.10 98.42 105.98
  Q 98.74 105.86 98.71 105.51
  L 97.35 88.08
  Q 97.31 87.50 97.89 87.50
  L 99.69 87.50
  Q 100.23 87.50 100.23 88.04
  L 100.20 106.46
  Z
  M 87.97 99.82
  Q 88.91 100.71 89.95 99.77
  A 0.69 0.68 43.0 0 0 89.91 98.73
  L 88.28 97.45
  A 0.65 0.64 34.1 0 0 87.33 97.63
  Q 85.00 101.65 85.34 106.30
  A 0.67 0.67 0.0 0 0 86.13 106.91
  Q 86.95 106.77 87.11 105.73
  Q 87.55 102.90 87.53 100.01
  Q 87.53 99.41 87.97 99.82
  Z"
/>
<path fill="#164e92" d="
  M 110.10 96.13
  L 104.31 96.02
  A 0.64 0.64 0.0 0 0 103.66 96.67
  L 103.79 106.01
  Q 103.80 106.74 103.07 106.67
  L 100.93 106.46
  Q 100.97 100.53 100.71 94.58
  C 100.63 92.75 101.46 90.38 100.69 88.23
  A 0.42 0.42 0.0 0 1 101.37 87.79
  L 110.10 96.13
  Z"
/>
<path fill="#ffffff" d="
  M 110.10 96.13
  Q 116.37 95.21 120.95 96.95
  L 120.57 104.75
  Q 120.18 107.09 121.75 106.74
  L 128.26 106.76
  Q 128.75 106.77 128.75 107.25
  L 128.75 115.75
  A 0.50 0.50 0.0 0 0 129.25 116.25
  L 138.47 116.25
  Q 138.94 116.25 139.09 116.69
  Q 139.47 117.76 139.27 119.08
  L 139.29 121.17
  L 139.23 123.69
  L 139.12 141.46
  Q 139.12 141.98 139.59 142.20
  L 149.33 146.61
  A 0.80 0.80 0.0 0 1 149.75 147.62
  L 141.93 169.07
  Q 141.81 169.39 142.10 169.21
  Q 149.64 164.44 159.02 166.14
  Q 147.20 176.65 134.40 185.17
  Q 127.23 184.67 121.60 180.64
  C 116.90 177.26 113.38 175.92 107.97 177.58
  C 104.65 178.60 101.43 181.70 98.44 183.19
  Q 95.39 184.73 89.77 185.17
  Q 76.57 177.03 64.48 166.79
  Q 63.99 166.38 64.61 166.25
  L 65.28 166.11
  Q 74.40 164.41 82.16 169.16
  Q 82.49 169.36 82.36 169.00
  L 74.51 147.53
  Q 74.29 146.91 74.89 146.64
  L 84.55 142.30
  Q 84.96 142.12 85.07 141.68
  Q 85.62 139.63 85.18 136.90
  L 85.16 119.90
  Q 84.90 119.40 84.94 118.76
  L 85.30 116.66
  Q 85.37 116.25 85.79 116.25
  L 95.02 116.25
  Q 95.56 116.25 95.55 115.70
  L 95.34 106.90
  L 96.03 106.47
  L 100.20 106.46
  Q 99.57 106.53 100.93 106.46
  L 103.07 106.67
  Q 103.80 106.74 103.79 106.01
  L 103.66 96.67
  A 0.64 0.64 0.0 0 1 104.31 96.02
  L 110.10 96.13
  Z
  M 116.9059 100.5990
  A 0.70 0.70 0.0 0 0 116.1998 99.9051
  L 108.2001 99.9749
  A 0.70 0.70 0.0 0 0 107.5063 100.6810
  L 107.5141 101.5810
  A 0.70 0.70 0.0 0 0 108.2202 102.2749
  L 116.2199 102.2051
  A 0.70 0.70 0.0 0 0 116.9137 101.4990
  L 116.9059 100.5990
  Z
  M 125.33 120.00
  A 0.33 0.33 0.0 0 1 125.00 119.67
  L 124.99 110.83
  A 0.33 0.33 0.0 0 0 124.66 110.50
  L 117.03 110.50
  A 0.33 0.33 0.0 0 1 116.70 110.16
  L 116.86 103.59
  A 0.33 0.33 0.0 0 0 116.53 103.25
  L 107.83 103.25
  A 0.33 0.33 0.0 0 0 107.50 103.58
  L 107.50 110.17
  A 0.33 0.33 0.0 0 1 107.17 110.50
  L 99.86 110.50
  A 0.33 0.33 0.0 0 0 99.53 110.83
  L 99.41 119.67
  A 0.33 0.33 0.0 0 1 99.08 120.00
  L 89.33 120.00
  A 0.33 0.33 0.0 0 0 89.00 120.33
  L 89.00 139.73
  A 0.33 0.33 0.0 0 0 89.47 140.03
  L 93.56 138.15
  A 0.33 0.33 0.0 0 0 93.75 137.85
  L 93.75 125.58
  A 0.33 0.33 0.0 0 1 94.08 125.25
  L 101.65 125.25
  A 0.33 0.33 0.0 0 1 101.98 125.58
  L 102.03 133.79
  A 0.33 0.33 0.0 0 0 102.49 134.09
  L 107.98 131.68
  A 0.33 0.33 0.0 0 0 108.18 131.36
  L 107.93 125.59
  A 0.33 0.33 0.0 0 1 108.26 125.25
  L 115.92 125.25
  A 0.33 0.33 0.0 0 1 116.25 125.58
  L 116.25 131.35
  A 0.33 0.33 0.0 0 0 116.44 131.65
  L 121.78 134.13
  A 0.33 0.33 0.0 0 0 122.25 133.83
  L 122.25 125.58
  A 0.33 0.33 0.0 0 1 122.58 125.25
  L 130.21 125.25
  A 0.33 0.33 0.0 0 1 130.54 125.58
  L 130.48 137.82
  A 0.33 0.33 0.0 0 0 130.67 138.12
  L 134.78 139.98
  A 0.33 0.33 0.0 0 0 135.25 139.68
  L 135.25 120.33
  A 0.33 0.33 0.0 0 0 134.92 120.00
  L 125.33 120.00
  Z
  M 98.4853 129.8353
  A 0.56 0.56 0.0 0 0 97.9302 129.2704
  L 97.8702 129.2699
  A 0.56 0.56 0.0 0 0 97.3053 129.8250
  L 97.2547 135.6247
  A 0.56 0.56 0.0 0 0 97.8098 136.1896
  L 97.8698 136.1901
  A 0.56 0.56 0.0 0 0 98.4347 135.6350
  L 98.4853 129.8353
  Z
  M 126.5773 136.4495
  A 3.65 0.54 89.1 0 0 127.0599 132.7915
  A 3.65 0.54 89.1 0 0 126.4627 129.1505
  A 3.65 0.54 89.1 0 0 125.9801 132.8085
  A 3.65 0.54 89.1 0 0 126.5773 136.4495
  Z
  M 112.32 142.00
  C 114.21 147.48 114.01 154.41 114.33 160.24
  Q 114.36 160.79 114.91 160.87
  C 123.05 161.98 127.72 164.99 134.80 170.82
  Q 135.21 171.16 135.57 170.76
  C 140.38 165.57 142.76 156.12 144.97 149.38
  Q 145.14 148.87 144.65 148.64
  L 112.61 134.12
  A 1.11 1.11 0.0 0 0 111.67 134.12
  L 79.77 148.59
  Q 79.20 148.85 79.38 149.45
  C 81.49 156.21 83.91 165.46 88.74 170.78
  Q 89.10 171.18 89.52 170.83
  C 96.67 164.88 101.17 162.17 109.53 160.81
  A 0.57 0.56 85.9 0 0 110.01 160.25
  Q 110.11 151.06 111.76 142.04
  Q 111.96 140.94 112.32 142.00
  Z
  M 97.59 174.62
  C 94.79 176.95 90.07 176.97 87.55 174.96
  Q 82.08 170.61 75.12 171.29
  A 0.11 0.11 0.0 0 0 75.10 171.50
  C 78.77 172.67 81.09 173.81 84.14 176.52
  C 89.27 181.09 94.79 182.75 100.96 178.80
  C 108.56 173.94 113.74 172.16 121.61 177.83
  C 134.50 187.13 139.52 173.63 149.36 171.59
  A 0.13 0.13 0.0 0 0 149.35 171.34
  C 145.97 170.89 143.00 171.39 139.98 173.02
  C 135.92 175.22 130.95 178.57 126.84 174.97
  Q 112.36 162.28 97.59 174.62
  Z"
/>
<rect fill="#3a8676" x="-4.70" y="-1.15" transform="translate(112.21,101.09) rotate(-0.5)" width="9.40" height="2.30" rx="0.70"/>
<path fill="#0c0e1e" fill-opacity="0.294" d="
  M 169.39 102.48
  C 170.33 103.91 169.74 106.07 169.72 107.73
  Q 169.72 108.03 169.47 107.87
  Q 169.37 107.80 169.28 107.68
  Q 169.25 107.64 169.25 107.50
  L 169.25 102.53
  Q 169.25 102.27 169.39 102.48
  Z"
/>
<path fill="#0c0e1e" fill-opacity="0.294" d="
  M 159.93 102.79
  L 159.87 112.64
  Q 159.86 113.30 159.32 112.93
  Q 159.12 112.80 158.94 112.73
  Q 158.51 112.56 158.57 112.10
  Q 159.13 108.21 159.03 104.25
  Q 159.01 103.57 158.50 103.09
  Q 157.91 102.52 158.71 102.37
  L 159.29 102.25
  Q 159.94 102.13 159.93 102.79
  Z"
/>
<path fill="#3a8676" d="
  M 125.33 120.00
  L 134.92 120.00
  A 0.33 0.33 0.0 0 1 135.25 120.33
  L 135.25 139.68
  A 0.33 0.33 0.0 0 1 134.78 139.98
  L 130.67 138.12
  A 0.33 0.33 0.0 0 1 130.48 137.82
  L 130.54 125.58
  A 0.33 0.33 0.0 0 0 130.21 125.25
  L 122.58 125.25
  A 0.33 0.33 0.0 0 0 122.25 125.58
  L 122.25 133.83
  A 0.33 0.33 0.0 0 1 121.78 134.13
  L 116.44 131.65
  A 0.33 0.33 0.0 0 1 116.25 131.35
  L 116.25 125.58
  A 0.33 0.33 0.0 0 0 115.92 125.25
  L 108.26 125.25
  A 0.33 0.33 0.0 0 0 107.93 125.59
  L 108.18 131.36
  A 0.33 0.33 0.0 0 1 107.98 131.68
  L 102.49 134.09
  A 0.33 0.33 0.0 0 1 102.03 133.79
  L 101.98 125.58
  A 0.33 0.33 0.0 0 0 101.65 125.25
  L 94.08 125.25
  A 0.33 0.33 0.0 0 0 93.75 125.58
  L 93.75 137.85
  A 0.33 0.33 0.0 0 1 93.56 138.15
  L 89.47 140.03
  A 0.33 0.33 0.0 0 1 89.00 139.73
  L 89.00 120.33
  A 0.33 0.33 0.0 0 1 89.33 120.00
  L 99.08 120.00
  A 0.33 0.33 0.0 0 0 99.41 119.67
  L 99.53 110.83
  A 0.33 0.33 0.0 0 1 99.86 110.50
  L 107.17 110.50
  A 0.33 0.33 0.0 0 0 107.50 110.17
  L 107.50 103.58
  A 0.33 0.33 0.0 0 1 107.83 103.25
  L 116.53 103.25
  A 0.33 0.33 0.0 0 1 116.86 103.59
  L 116.70 110.16
  A 0.33 0.33 0.0 0 0 117.03 110.50
  L 124.66 110.50
  A 0.33 0.33 0.0 0 1 124.99 110.83
  L 125.00 119.67
  A 0.33 0.33 0.0 0 0 125.33 120.00
  Z"
/>
<path fill="#0c0e1e" fill-opacity="0.294" d="
  M 120.57 104.75
  Q 121.88 105.44 121.75 106.74
  Q 120.18 107.09 120.57 104.75
  Z"
/>
<path fill="#164e92" d="
  M 48.53 120.71
  L 48.28 112.49
  A 0.97 0.97 0.0 0 1 48.72 111.64
  Q 49.83 110.93 51.07 111.45
  Q 51.47 111.62 51.91 111.58
  L 55.57 111.25
  A 0.70 0.69 -2.2 0 1 56.33 111.95
  L 56.22 121.74
  Q 56.21 122.51 55.44 122.50
  L 48.60 122.36
  Q 47.97 122.35 47.70 122.92
  L 47.48 123.40
  Q 47.17 124.07 47.91 124.09
  L 76.81 124.90
  Q 77.30 124.91 77.73 124.67
  Q 78.75 124.12 79.70 124.45
  Q 80.25 124.64 80.25 125.22
  L 80.25 130.07
  A 1.57 1.56 -89.8 0 1 78.68 131.64
  L 56.93 131.57
  Q 56.50 131.57 56.35 131.96
  C 55.31 134.63 54.85 137.37 51.39 137.57
  Q 50.91 137.60 50.52 137.34
  C 46.93 134.94 48.42 130.73 44.44 130.52
  Q 42.96 130.44 42.98 128.97
  L 43.04 124.21
  A 0.65 0.65 0.0 0 1 43.72 123.57
  L 46.27 123.71
  Q 47.08 123.75 46.67 123.06
  L 46.51 122.78
  Q 46.20 122.26 46.74 121.99
  L 48.20 121.25
  Q 48.54 121.08 48.53 120.71
  Z
  M 45.72 129.98
  A 0.77 0.77 0.0 0 0 46.75 129.26
  L 46.75 127.99
  A 0.86 0.86 0.0 0 0 45.30 127.36
  Q 43.41 129.11 45.72 129.98
  Z
  M 51.7338 128.7556
  A 0.87 0.87 0.0 0 0 50.9495 127.8076
  L 48.9982 127.6231
  A 0.87 0.87 0.0 0 0 48.0502 128.4074
  L 47.9862 129.0844
  A 0.87 0.87 0.0 0 0 48.7705 130.0324
  L 50.7218 130.2169
  A 0.87 0.87 0.0 0 0 51.6698 129.4326
  L 51.7338 128.7556
  Z
  M 60.1582 128.8209
  A 0.82 0.82 0.0 0 0 59.3540 127.9853
  L 53.6151 127.8751
  A 0.82 0.82 0.0 0 0 52.7795 128.6792
  L 52.7618 129.5991
  A 0.82 0.82 0.0 0 0 53.5660 130.4347
  L 59.3049 130.5449
  A 0.82 0.82 0.0 0 0 60.1405 129.7408
  L 60.1582 128.8209
  Z
  M 65.4809 129.1000
  A 0.83 0.83 0.0 0 0 64.6670 128.2543
  L 62.1675 128.2063
  A 0.83 0.83 0.0 0 0 61.3217 129.0202
  L 61.2991 130.2000
  A 0.83 0.83 0.0 0 0 62.1130 131.0457
  L 64.6125 131.0937
  A 0.83 0.83 0.0 0 0 65.4583 130.2798
  L 65.4809 129.1000
  Z
  M 71.0272 129.5402
  A 0.98 0.98 0.0 0 0 70.0980 128.5118
  L 68.1206 128.4117
  A 0.98 0.98 0.0 0 0 67.0923 129.3408
  L 67.0528 130.1198
  A 0.98 0.98 0.0 0 0 67.9820 131.1482
  L 69.9594 131.2483
  A 0.98 0.98 0.0 0 0 70.9877 130.3192
  L 71.0272 129.5402
  Z"
/>
<rect fill="#164e92" x="-2.04" y="-5.52" transform="translate(64.01,116.94) rotate(-0.3)" width="4.08" height="11.04" rx="0.65"/>
<rect fill="#164e92" x="-2.14" y="-5.49" transform="translate(59.11,117.00) rotate(0.2)" width="4.28" height="10.98" rx="0.59"/>
<path fill="#164e92" d="
  M 46.87 116.44
  L 47.18 119.78
  A 0.49 0.49 0.0 0 1 46.53 120.29
  L 44.66 119.62
  A 0.49 0.49 0.0 0 1 44.41 118.91
  L 45.96 116.24
  A 0.49 0.49 0.0 0 1 46.87 116.44
  Z"
/>
<path fill="#0c0e1e" fill-opacity="0.294" d="
  M 162.62 117.88
  Q 163.13 117.77 162.15 117.36
  Q 165.69 116.42 167.80 119.46
  A 0.84 0.84 0.0 0 0 168.64 119.80
  L 170.25 119.51
  A 0.22 0.21 -75.2 0 1 170.45 119.86
  C 169.88 120.54 169.24 120.75 168.39 120.36
  C 166.09 119.30 165.64 117.37 162.62 117.88
  Z"
/>
<path fill="#164e92" d="
  M 85.16 119.90
  L 85.18 136.90
  Q 84.69 136.81 83.64 137.60
  A 0.56 0.56 0.0 0 1 82.86 137.50
  C 79.77 133.51 80.39 124.55 82.24 120.16
  Q 82.82 118.78 85.16 119.90
  Z"
/>
<path fill="#0c0e1e" fill-opacity="0.294" d="
  M 139.27 119.08
  Q 141.15 120.45 139.29 121.17
  L 139.27 119.08
  Z"
/>
<rect fill="#0c0e1e" fill-opacity="0.294" x="-0.59" y="-3.46" transform="translate(97.87,132.73) rotate(0.5)" width="1.18" height="6.92" rx="0.56"/>
<path fill="#3a8676" d="
  M 111.76 142.04
  Q 110.11 151.06 110.01 160.25
  A 0.57 0.56 85.9 0 1 109.53 160.81
  C 101.17 162.17 96.67 164.88 89.52 170.83
  Q 89.10 171.18 88.74 170.78
  C 83.91 165.46 81.49 156.21 79.38 149.45
  Q 79.20 148.85 79.77 148.59
  L 111.67 134.12
  A 1.11 1.11 0.0 0 1 112.61 134.12
  L 144.65 148.64
  Q 145.14 148.87 144.97 149.38
  C 142.76 156.12 140.38 165.57 135.57 170.76
  Q 135.21 171.16 134.80 170.82
  C 127.72 164.99 123.05 161.98 114.91 160.87
  Q 114.36 160.79 114.33 160.24
  C 114.01 154.41 114.21 147.48 112.32 142.00
  Q 111.96 140.94 111.76 142.04
  Z"
/>
<path fill="#164e92" d="
  M 174.13 134.66
  A 0.21 0.20 -41.1 0 1 174.16 134.25
  L 177.00 134.25
  Q 177.25 134.25 177.25 134.50
  Q 177.25 134.64 177.25 134.78
  A 0.23 0.23 0.0 0 1 176.99 135.01
  L 174.13 134.66
  Z"
/>
<path fill="#ffffff" d="
  M 49.91 168.74
  Q 51.14 169.36 51.79 170.77
  L 46.96 169.70
  Q 46.08 169.51 46.97 169.33
  L 49.91 168.74
  Z"
/>
<path fill="#3a8676" d="
  M 87.55 174.96
  C 90.07 176.97 94.79 176.95 97.59 174.62
  Q 112.36 162.28 126.84 174.97
  C 130.95 178.57 135.92 175.22 139.98 173.02
  C 143.00 171.39 145.97 170.89 149.35 171.34
  A 0.13 0.13 0.0 0 1 149.36 171.59
  C 139.52 173.63 134.50 187.13 121.61 177.83
  C 113.74 172.16 108.56 173.94 100.96 178.80
  C 94.79 182.75 89.27 181.09 84.14 176.52
  C 81.09 173.81 78.77 172.67 75.10 171.50
  A 0.11 0.11 0.0 0 1 75.12 171.29
  Q 82.08 170.61 87.55 174.96
  Z"
/>
<path fill="#ffffff" d="
  M 172.91 168.64
  L 177.27 169.28
  A 0.30 0.29 -45.3 0 1 177.27 169.86
  L 170.01 171.05
  Q 171.66 169.10 172.91 168.64
  Z"
/>
</svg>
