<?xml version="1.0" encoding="UTF-8" standalone="no"?>
<!DOCTYPE svg PUBLIC "-//W3C//DTD SVG 1.1//EN" "http://www.w3.org/Graphics/SVG/1.1/DTD/svg11.dtd">
<svg xmlns="http://www.w3.org/2000/svg" version="1.1" viewBox="0.00 0.00 235.00 236.00">
<path fill="#3a67a2" d="
  M 208.55 41.30
  Q 209.25 41.50 209.25 42.24
  Q 209.24 74.51 209.26 107.13
  Q 209.26 119.44 207.93 126.27
  C 199.46 169.65 155.49 204.44 118.56 223.50
  Q 118.14 223.72 117.72 223.49
  C 78.11 202.30 34.50 170.82 27.52 123.37
  Q 26.59 117.05 26.56 103.43
  Q 26.48 75.72 26.20 48.00
  Q 26.18 46.02 26.55 41.95
  A 0.72 0.72 0.0 0 1 27.06 41.32
  C 85.33 23.31 149.97 24.87 208.55 41.30
  Z
  M 201.83 44.40
  C 147.22 29.31 87.99 28.16 33.73 44.41
  Q 33.06 44.61 33.05 45.31
  Q 32.87 68.80 33.07 92.30
  Q 33.20 108.77 33.52 112.29
  C 37.67 158.11 80.27 188.49 117.10 208.56
  A 1.86 1.85 45.8 0 0 118.83 208.59
  C 144.35 195.53 165.37 178.93 183.80 156.33
  Q 197.68 139.30 201.51 118.19
  Q 202.72 111.54 202.60 99.23
  Q 202.32 72.18 202.58 45.39
  Q 202.58 44.61 201.83 44.40
  Z"
/>
<path fill="#58978a" d="
  M 155.96 58.26
  A 17.58 17.58 0.0 0 1 138.38 75.84
  A 17.58 17.58 0.0 0 1 120.80 58.26
  A 17.58 17.58 0.0 0 1 138.38 40.68
  A 17.58 17.58 0.0 0 1 155.96 58.26
  Z
  M 149.15 58.26
  A 10.76 10.76 0.0 0 0 138.39 47.50
  A 10.76 10.76 0.0 0 0 127.63 58.26
  A 10.76 10.76 0.0 0 0 138.39 69.02
  A 10.76 10.76 0.0 0 0 149.15 58.26
  Z"
/>
<circle fill="#58978a" cx="138.38" cy="58.27" r="7.64"/>
<path fill="#58978a" d="
  M 129.79 78.81
  L 87.14 113.92
  Q 86.51 114.44 86.39 113.63
  Q 84.23 98.64 70.75 91.96
  A 0.44 0.43 41.6 0 1 70.70 91.21
  L 116.89 60.87
  Q 117.45 60.50 117.57 61.16
  Q 119.53 72.40 129.67 77.66
  Q 130.60 78.14 129.79 78.81
  Z"
/>
<path fill="#58978a" d="
  M 162.43 124.56
  L 180.49 130.71
  A 1.19 1.16 -3.0 0 1 181.15 131.29
  L 183.28 135.56
  Q 183.63 136.27 182.86 136.09
  L 149.23 128.41
  Q 148.68 128.28 148.81 127.73
  L 153.21 109.19
  Q 153.33 108.71 153.01 108.32
  Q 146.95 101.00 150.10 91.86
  Q 150.26 91.39 149.99 90.98
  L 142.29 79.72
  A 0.73 0.73 0.0 0 1 142.76 78.59
  Q 151.45 76.98 156.66 69.91
  A 0.42 0.41 -44.0 0 1 157.34 69.92
  L 164.66 80.85
  Q 165.00 81.36 165.61 81.41
  Q 176.26 82.31 180.44 92.01
  Q 180.67 92.54 181.24 92.64
  L 198.94 95.72
  Q 199.48 95.81 199.37 96.35
  L 192.48 129.62
  A 0.39 0.39 0.0 0 1 191.81 129.81
  L 189.55 127.38
  Q 189.19 126.98 189.21 126.45
  L 190.10 107.00
  A 0.73 0.73 0.0 0 0 189.50 106.25
  L 180.26 104.77
  Q 179.83 104.71 179.63 105.08
  Q 175.42 112.73 166.74 113.81
  Q 166.11 113.88 165.88 114.46
  L 162.06 123.76
  Q 161.82 124.35 162.43 124.56
  Z
  M 175.51 97.30
  A 10.80 10.80 0.0 0 0 164.71 86.50
  A 10.80 10.80 0.0 0 0 153.91 97.30
  A 10.80 10.80 0.0 0 0 164.71 108.10
  A 10.80 10.80 0.0 0 0 175.51 97.30
  Z"
/>
<circle fill="#58978a" cx="164.71" cy="96.89" r="6.48"/>
<path fill="#58978a" d="
  M 82.08 116.53
  A 22.84 22.84 0.0 0 1 59.24 139.37
  A 22.84 22.84 0.0 0 1 36.40 116.53
  A 22.84 22.84 0.0 0 1 59.24 93.69
  A 22.84 22.84 0.0 0 1 82.08 116.53
  Z
  M 73.23 116.54
  A 13.99 13.99 0.0 0 0 59.24 102.55
  A 13.99 13.99 0.0 0 0 45.25 116.54
  A 13.99 13.99 0.0 0 0 59.24 130.53
  A 13.99 13.99 0.0 0 0 73.23 116.54
  Z"
/>
<circle fill="#58978a" cx="59.24" cy="116.54" r="10.00"/>
<path fill="#58978a" d="
  M 113.98 145.73
  Q 114.52 146.20 113.82 146.36
  Q 92.62 151.19 88.56 172.60
  Q 88.44 173.22 88.04 172.74
  L 63.95 143.56
  Q 63.56 143.08 64.16 142.94
  Q 81.17 138.91 85.51 121.97
  Q 85.70 121.22 86.29 121.73
  L 113.98 145.73
  Z"
/>
<path fill="#58978a" d="
  M 145.00 176.39
  A 26.29 26.29 0.0 0 1 118.71 202.68
  A 26.29 26.29 0.0 0 1 92.42 176.39
  A 26.29 26.29 0.0 0 1 118.71 150.10
  A 26.29 26.29 0.0 0 1 145.00 176.39
  Z
  M 134.83 176.38
  A 16.11 16.11 0.0 0 0 118.72 160.27
  A 16.11 16.11 0.0 0 0 102.61 176.38
  A 16.11 16.11 0.0 0 0 118.72 192.49
  A 16.11 16.11 0.0 0 0 134.83 176.38
  Z"
/>
<circle fill="#58978a" cx="118.72" cy="176.38" r="11.50"/>
</svg>
