<?xml version="1.0" encoding="UTF-8" standalone="no"?>
<!DOCTYPE svg PUBLIC "-//W3C//DTD SVG 1.1//EN" "http://www.w3.org/Graphics/SVG/1.1/DTD/svg11.dtd">
<svg xmlns="http://www.w3.org/2000/svg" version="1.1" viewBox="0.00 0.00 222.00 242.00">
<path fill="#3a67a2" d="
  M 201.14 41.20
  A 0.84 0.84 0.0 0 1 201.76 42.01
  Q 201.74 73.96 201.76 106.06
  Q 201.77 118.80 200.44 125.84
  C 192.27 168.93 148.05 204.47 110.78 223.38
  A 0.94 0.94 0.0 0 1 109.89 223.36
  C 71.43 202.21 26.68 170.72 20.03 123.63
  Q 19.17 117.50 19.00 103.67
  Q 18.64 72.72 19.07 41.81
  A 0.81 0.80 82.1 0 1 19.64 41.05
  C 78.34 23.36 142.54 24.61 201.14 41.20
  Z
  M 194.59 44.28
  C 139.80 29.22 80.22 27.86 26.06 44.30
  Q 25.57 44.45 25.57 44.96
  Q 25.32 89.49 25.61 106.06
  C 26.50 155.36 71.09 187.59 109.97 208.55
  Q 110.40 208.79 110.85 208.56
  C 131.00 198.43 149.90 185.19 165.29 168.66
  C 179.34 153.58 189.78 139.59 193.81 119.25
  Q 195.04 113.08 195.02 103.68
  Q 194.97 74.11 195.01 44.83
  A 0.57 0.56 -82.8 0 0 194.59 44.28
  Z"
/>
<path fill="#58978a" d="
  M 55.63 84.45
  C 47.21 104.83 50.93 128.48 64.49 145.76
  Q 64.79 146.14 64.58 146.57
  L 63.67 148.43
  A 0.53 0.53 0.0 0 1 62.78 148.52
  C 35.09 113.34 48.70 61.60 91.13 46.18
  C 131.85 31.38 175.60 59.86 178.32 103.15
  Q 179.88 128.07 164.02 148.46
  Q 163.66 148.92 163.27 148.47
  Q 161.51 146.41 161.75 143.70
  A 1.38 1.37 25.0 0 0 161.34 142.59
  Q 158.37 139.76 159.38 135.51
  A 0.84 0.82 -65.5 0 0 159.07 134.66
  C 155.73 132.14 158.03 129.44 159.48 126.84
  A 0.80 0.79 -46.0 0 0 159.47 126.05
  L 155.46 119.04
  Q 155.18 118.56 155.24 118.01
  L 155.71 113.89
  Q 155.78 113.25 155.15 113.19
  L 151.95 112.90
  A 0.60 0.59 -17.5 0 1 151.54 112.69
  Q 149.25 109.85 146.53 112.28
  Q 146.12 112.64 145.57 112.67
  L 139.13 113.00
  Q 138.62 113.02 138.28 112.64
  C 134.88 108.86 129.76 105.04 133.85 99.31
  A 0.62 0.61 25.6 0 0 133.51 98.37
  L 132.81 98.17
  A 1.32 1.32 0.0 0 1 132.38 95.84
  L 138.58 91.30
  Q 139.00 90.99 139.00 90.47
  L 139.00 88.04
  Q 139.00 87.56 139.38 87.28
  Q 141.95 85.36 145.10 85.76
  Q 145.67 85.83 146.19 85.61
  Q 150.57 83.79 155.38 84.06
  Q 156.00 84.10 156.00 84.72
  L 156.00 87.20
  Q 156.00 87.78 156.57 87.83
  Q 159.99 88.18 162.98 89.80
  Q 163.73 90.20 163.71 89.35
  Q 163.66 86.87 166.87 87.73
  Q 167.29 87.84 167.62 88.13
  Q 169.55 89.78 172.14 89.84
  Q 172.71 89.85 172.65 89.28
  Q 172.31 85.94 169.97 83.80
  C 168.89 82.81 168.44 82.13 168.80 80.71
  A 0.66 0.65 -16.7 0 0 167.68 80.11
  Q 166.35 81.60 166.15 83.58
  Q 166.09 84.23 165.54 83.87
  C 163.09 82.28 163.68 80.13 162.48 78.49
  Q 160.93 76.39 158.24 76.12
  A 0.62 0.61 -2.7 0 0 157.57 76.85
  Q 157.92 78.69 160.30 79.72
  Q 162.62 80.72 161.23 83.23
  A 1.91 1.91 0.0 0 1 158.03 83.43
  L 157.74 83.03
  A 0.31 0.31 0.0 0 1 158.05 82.54
  L 159.44 82.79
  A 0.62 0.62 0.0 0 0 159.91 81.68
  L 154.80 78.03
  Q 154.43 77.77 154.11 78.09
  L 153.50 78.70
  Q 153.13 79.07 152.64 78.89
  C 150.44 78.08 148.31 82.22 147.40 83.74
  Q 147.06 84.30 146.39 84.29
  L 141.41 84.21
  Q 140.65 84.20 140.58 83.44
  L 140.18 79.61
  Q 140.12 78.97 140.68 78.66
  Q 143.40 77.19 146.25 78.31
  A 0.82 0.82 0.0 0 0 147.05 76.89
  Q 145.62 75.82 146.36 74.11
  Q 146.60 73.57 147.17 73.44
  L 149.52 72.90
  Q 150.08 72.77 150.31 72.25
  Q 152.16 68.16 156.59 69.66
  A 0.50 0.50 0.0 0 0 157.25 69.11
  L 156.93 67.05
  A 0.47 0.47 0.0 0 0 156.22 66.73
  L 155.01 67.49
  A 0.56 0.56 0.0 0 1 154.17 67.16
  Q 153.74 65.54 152.20 65.08
  A 0.75 0.75 0.0 0 1 151.68 64.24
  Q 152.00 62.20 154.10 61.86
  A 0.62 0.62 0.0 0 0 154.41 60.78
  C 133.29 42.13 103.03 40.33 79.28 55.27
  Q 78.77 55.59 79.34 55.78
  L 83.39 57.16
  Q 83.97 57.36 84.47 57.71
  Q 86.10 58.88 88.24 58.60
  A 0.60 0.60 0.0 0 0 88.20 57.41
  Q 85.17 57.21 85.20 55.75
  Q 85.21 55.27 84.72 55.29
  L 83.14 55.38
  A 0.50 0.50 0.0 0 1 82.76 54.53
  Q 85.24 52.10 88.78 52.50
  A 1.28 1.25 -10.7 0 1 89.73 53.13
  C 91.13 55.60 93.43 55.36 95.26 53.48
  A 0.61 0.61 0.0 0 1 96.24 54.20
  Q 94.93 56.62 92.20 56.24
  A 0.78 0.78 0.0 0 0 91.34 56.79
  Q 90.97 58.08 92.26 58.47
  Q 94.20 59.05 95.92 57.49
  A 1.00 1.00 0.0 0 1 96.76 57.24
  Q 97.84 57.42 98.63 56.75
  A 0.53 0.53 0.0 0 0 98.59 55.92
  L 97.43 55.09
  A 0.50 0.50 0.0 0 1 97.48 54.24
  Q 99.64 53.05 102.21 53.56
  Q 103.11 53.73 102.49 54.41
  L 101.01 56.04
  A 0.63 0.62 47.8 0 0 100.98 56.84
  Q 101.85 57.95 103.21 57.75
  Q 103.79 57.66 103.66 57.09
  C 102.86 53.45 106.70 53.53 109.07 53.35
  C 111.14 53.19 113.72 54.88 115.66 55.69
  Q 116.12 55.88 116.01 56.37
  Q 115.61 58.10 117.18 58.39
  Q 117.73 58.49 117.64 59.04
  Q 117.43 60.31 116.24 60.50
  Q 116.16 60.51 115.25 60.36
  Q 114.20 60.18 113.59 62.11
  A 0.45 0.44 -73.9 0 1 113.06 62.41
  L 107.97 61.18
  A 0.33 0.33 0.0 0 1 107.90 60.57
  L 111.57 58.68
  A 0.50 0.50 0.0 0 0 111.61 57.82
  Q 109.74 56.60 107.62 57.06
  C 106.01 57.40 105.45 58.63 103.67 59.08
  Q 103.22 59.20 103.13 59.66
  Q 102.78 61.56 100.60 61.98
  Q 99.98 62.10 99.86 61.48
  L 99.69 60.63
  Q 99.56 59.96 98.96 60.27
  L 91.81 64.03
  Q 91.31 64.29 91.42 64.85
  Q 92.14 68.33 95.92 67.92
  A 0.74 0.72 -2.9 0 1 96.73 68.64
  L 96.76 71.30
  A 0.48 0.47 74.8 0 0 97.47 71.71
  Q 98.73 71.00 99.06 69.48
  Q 99.18 68.88 99.76 68.70
  L 102.25 67.91
  Q 102.75 67.75 102.75 67.22
  L 102.75 63.92
  A 1.34 1.34 0.0 0 1 103.52 62.71
  Q 106.23 61.44 109.01 63.16
  A 0.61 0.60 -67.6 0 1 109.28 63.83
  L 108.99 64.99
  A 0.82 0.81 -7.3 0 0 110.17 65.90
  L 112.93 64.42
  A 0.49 0.49 0.0 0 1 113.62 65.00
  Q 112.66 67.92 115.17 68.84
  Q 115.69 69.04 115.87 69.56
  Q 116.69 71.83 114.56 72.09
  A 0.81 0.81 0.0 0 0 114.62 73.71
  Q 116.02 73.77 116.71 75.06
  A 0.73 0.73 0.0 0 1 115.85 76.10
  L 112.45 75.05
  Q 111.66 74.80 112.11 74.10
  L 113.13 72.50
  A 0.24 0.23 -58.6 0 0 113.06 72.17
  L 112.82 72.03
  Q 112.35 71.75 111.98 72.14
  Q 109.97 74.22 108.02 72.10
  A 1.13 1.08 70.3 0 0 107.32 71.75
  Q 106.19 71.65 105.81 72.46
  A 0.74 0.74 0.0 0 0 106.07 73.38
  L 107.38 74.25
  A 0.40 0.40 0.0 0 1 107.06 74.97
  Q 104.01 74.26 102.72 77.23
  A 1.12 1.11 -0.9 0 1 102.15 77.81
  C 99.54 79.02 94.66 82.31 94.50 85.24
  A 0.90 0.90 0.0 0 1 94.04 85.97
  C 91.15 87.59 87.32 89.53 88.98 93.25
  A 0.29 0.29 0.0 0 1 88.72 93.66
  Q 85.83 93.74 85.95 91.06
  Q 85.97 90.65 85.56 90.61
  C 79.97 90.13 75.61 90.06 73.22 95.41
  C 72.40 97.26 72.02 99.74 74.44 100.43
  C 77.05 101.18 78.81 99.12 80.83 97.83
  A 0.53 0.53 0.0 0 1 81.64 98.19
  Q 81.93 99.83 80.69 101.01
  A 0.60 0.60 0.0 0 0 81.02 102.04
  L 83.41 102.39
  Q 84.02 102.48 84.06 103.09
  L 84.32 107.32
  Q 84.36 107.88 84.86 108.14
  Q 89.57 110.59 91.75 106.22
  A 1.16 1.15 -80.6 0 1 92.60 105.60
  Q 95.84 105.13 97.62 107.48
  Q 97.94 107.89 98.46 107.98
  Q 100.61 108.33 102.37 107.08
  Q 102.88 106.72 103.26 107.22
  L 106.21 111.11
  Q 106.50 111.48 106.97 111.49
  L 109.59 111.51
  Q 110.13 111.51 110.46 111.93
  Q 111.98 113.83 111.74 116.31
  A 1.01 1.00 -73.7 0 0 112.27 117.29
  Q 116.60 119.57 121.49 118.93
  Q 122.00 118.86 122.24 119.31
  L 123.27 121.21
  Q 123.44 121.53 124.06 121.92
  Q 124.34 122.10 124.83 121.93
  A 1.62 1.16 -73.7 0 1 125.72 124.46
  L 122.83 128.35
  Q 122.54 128.73 122.06 128.70
  C 114.07 128.10 106.21 128.67 99.49 132.33
  Q 98.96 132.62 98.89 132.03
  C 98.06 125.87 90.71 122.42 85.66 120.36
  Q 85.17 120.15 85.20 119.62
  L 85.39 116.62
  A 0.80 0.79 83.6 0 1 85.94 115.92
  Q 89.90 114.69 88.21 110.81
  Q 88.02 110.37 87.54 110.32
  L 83.26 109.86
  A 0.70 0.68 79.4 0 1 82.72 109.48
  Q 80.57 105.19 75.86 104.74
  Q 75.25 104.68 75.25 104.06
  Q 75.25 103.90 75.26 103.71
  A 0.85 0.84 10.2 0 0 74.62 102.80
  Q 73.74 102.58 72.99 103.14
  Q 72.61 103.43 72.15 103.30
  C 68.79 102.41 64.71 101.67 65.90 96.99
  Q 66.03 96.46 65.66 96.07
  Q 62.63 92.86 62.17 88.55
  A 0.57 0.57 0.0 0 0 61.04 88.53
  C 60.55 91.72 62.38 93.03 63.53 95.57
  A 1.15 1.15 0.0 0 1 61.66 96.85
  Q 58.07 93.19 58.80 88.09
  A 0.93 0.93 0.0 0 0 58.23 87.10
  L 56.76 86.51
  Q 56.17 86.27 56.12 85.64
  L 56.03 84.51
  Q 55.96 83.63 55.63 84.45
  Z"
/>
<path fill="#dd463b" d="
  M 78.60 159.39
  C 77.02 165.54 70.43 159.92 67.90 158.35
  A 3.26 3.25 -59.4 0 1 66.79 153.99
  L 81.81 127.30
  A 2.75 2.74 29.9 0 1 85.60 126.29
  C 88.20 127.83 95.51 130.61 92.58 134.74
  A 0.67 0.66 -56.2 0 0 92.76 135.68
  Q 96.47 138.07 100.87 138.35
  Q 101.34 138.38 101.69 138.05
  C 109.54 130.57 124.91 135.71 133.56 136.01
  A 0.57 0.57 0.0 0 0 134.12 135.26
  Q 132.88 131.47 134.85 130.14
  Q 138.11 127.93 141.17 126.26
  A 2.78 2.77 -29.2 0 1 144.92 127.32
  L 160.05 154.21
  A 2.97 2.96 -30.6 0 1 159.03 158.18
  C 156.53 159.73 149.94 165.37 148.23 159.69
  A 0.58 0.57 -29.4 0 0 147.29 159.43
  L 143.30 163.09
  Q 142.95 163.41 143.03 163.87
  Q 144.16 170.26 137.75 171.25
  Q 137.24 171.33 137.13 171.84
  Q 136.25 175.91 132.02 176.22
  A 0.72 0.70 3.1 0 0 131.37 176.79
  Q 130.51 181.16 125.92 181.21
  A 1.18 1.17 18.2 0 0 124.98 181.68
  C 120.99 186.97 115.59 185.36 110.19 183.61
  Q 109.66 183.44 109.31 183.86
  Q 105.73 188.17 101.42 184.75
  Q 101.03 184.44 100.77 184.02
  L 100.03 182.77
  Q 99.76 182.32 99.24 182.38
  C 93.89 182.92 94.25 177.75 91.21 177.99
  Q 90.69 178.03 90.22 177.83
  Q 86.90 176.41 86.65 172.89
  Q 86.62 172.39 86.14 172.23
  Q 79.77 170.10 82.26 163.54
  Q 82.48 162.95 82.09 162.46
  L 79.50 159.20
  A 0.52 0.51 33.0 0 0 78.60 159.39
  Z
  M 90.0472 133.1013
  A 0.62 0.62 0.0 0 0 89.8114 132.2567
  L 84.8106 129.4390
  A 0.62 0.62 0.0 0 0 83.9661 129.6748
  L 69.5728 155.2187
  A 0.62 0.62 0.0 0 0 69.8086 156.0633
  L 74.8094 158.8810
  A 0.62 0.62 0.0 0 0 75.6539 158.6452
  L 90.0472 133.1013
  Z
  M 142.6426 129.4880
  A 0.43 0.43 0.0 0 0 142.0572 129.3234
  L 136.7375 132.3087
  A 0.43 0.43 0.0 0 0 136.5730 132.8941
  L 151.1174 158.8120
  A 0.43 0.43 0.0 0 0 151.7028 158.9766
  L 157.0225 155.9913
  A 0.43 0.43 0.0 0 0 157.1870 155.4059
  L 142.6426 129.4880
  Z
  M 129.81 138.94
  C 124.01 137.46 107.75 135.12 104.18 140.23
  Q 101.36 144.26 98.28 148.88
  Q 97.23 150.45 99.10 150.66
  C 102.09 151.00 105.19 147.84 107.15 145.62
  C 108.73 143.84 110.35 143.45 112.51 143.00
  A 1.57 1.53 52.1 0 1 113.53 143.14
  Q 127.89 150.46 140.31 160.75
  Q 140.81 161.17 141.30 160.73
  L 145.78 156.71
  Q 146.24 156.30 145.93 155.76
  L 136.31 138.70
  Q 136.04 138.24 135.53 138.41
  Q 132.22 139.55 129.81 138.94
  Z
  M 120.77 160.48
  A 1.19 1.19 0.0 0 1 122.56 159.50
  L 136.59 167.88
  A 2.23 2.23 0.0 0 0 139.08 167.74
  Q 141.50 165.89 139.13 163.87
  Q 127.50 153.95 114.00 146.83
  C 112.66 146.13 110.36 146.20 109.58 147.32
  C 107.50 150.33 97.54 157.94 95.14 151.65
  C 93.98 148.62 97.61 144.30 99.30 141.85
  A 0.44 0.44 0.0 0 0 98.99 141.16
  Q 94.77 140.65 91.21 138.32
  Q 90.77 138.03 90.51 138.49
  L 80.98 155.39
  Q 80.69 155.91 81.06 156.36
  L 84.03 160.00
  Q 84.42 160.48 84.97 160.18
  Q 89.67 157.58 92.69 161.80
  Q 93.01 162.25 93.32 161.78
  C 96.38 157.12 102.53 159.61 102.92 164.72
  Q 102.96 165.26 103.48 165.40
  Q 107.92 166.62 108.02 171.23
  Q 108.03 171.74 108.51 171.94
  Q 114.32 174.32 111.99 180.29
  Q 111.80 180.79 112.28 181.02
  Q 116.46 182.96 120.78 181.72
  A 1.05 1.05 0.0 0 0 120.93 179.76
  Q 117.55 178.19 113.67 175.99
  Q 112.05 175.07 113.33 173.57
  A 1.10 1.10 0.0 0 1 114.68 173.31
  C 117.29 174.70 126.82 180.88 128.48 176.30
  Q 128.72 175.64 128.11 175.29
  Q 123.02 172.36 117.71 169.28
  Q 116.34 168.48 116.82 167.14
  A 1.34 1.34 0.0 0 1 118.75 166.44
  Q 124.10 169.52 129.73 172.71
  C 131.25 173.57 132.75 173.46 133.89 172.23
  A 1.73 1.73 0.0 0 0 133.51 169.57
  L 121.17 162.18
  Q 120.72 161.91 120.74 161.40
  L 120.77 160.48
  Z
  M 90.2542 165.8646
  A 1.99 1.99 0.0 0 0 89.8528 163.0791
  L 89.3403 162.6958
  A 1.99 1.99 0.0 0 0 86.5548 163.0972
  L 84.7458 165.5154
  A 1.99 1.99 0.0 0 0 85.1472 168.3009
  L 85.6597 168.6842
  A 1.99 1.99 0.0 0 0 88.4452 168.2828
  L 90.2542 165.8646
  Z
  M 99.6766 165.8494
  A 1.85 1.85 0.0 0 0 99.2854 163.2625
  L 98.6093 162.7641
  A 1.85 1.85 0.0 0 0 96.0224 163.1553
  L 89.8034 171.5906
  A 1.85 1.85 0.0 0 0 90.1946 174.1775
  L 90.8707 174.6759
  A 1.85 1.85 0.0 0 0 93.4576 174.2847
  L 99.6766 165.8494
  Z
  M 104.6945 171.9873
  A 2.02 2.02 0.0 0 0 104.2821 169.1605
  L 103.8011 168.8020
  A 2.02 2.02 0.0 0 0 100.9743 169.2143
  L 96.1455 175.6927
  A 2.02 2.02 0.0 0 0 96.5579 178.5195
  L 97.0389 178.8780
  A 2.02 2.02 0.0 0 0 99.8657 178.4657
  L 104.6945 171.9873
  Z
  M 109.4383 178.4302
  A 1.92 1.92 0.0 0 0 109.0463 175.7433
  L 108.4369 175.2891
  A 1.92 1.92 0.0 0 0 105.7501 175.6811
  L 102.8217 179.6098
  A 1.92 1.92 0.0 0 0 103.2137 182.2967
  L 103.8231 182.7509
  A 1.92 1.92 0.0 0 0 106.5099 182.3589
  L 109.4383 178.4302
  Z"
/>
</svg>
