<?xml version="1.0" encoding="UTF-8" standalone="no"?>
<!DOCTYPE svg PUBLIC "-//W3C//DTD SVG 1.1//EN" "http://www.w3.org/Graphics/SVG/1.1/DTD/svg11.dtd">
<svg xmlns="http://www.w3.org/2000/svg" version="1.1" viewBox="0.00 0.00 221.00 227.00">
<g stroke-width="2.00" fill="none" stroke-linecap="butt">
<path stroke="#9db3d1" vector-effect="non-scaling-stroke" d="
  M 121.41 75.08
  C 115.34 58.41 101.61 58.70 95.80 75.27
  A 0.68 0.67 14.8 0 1 95.03 75.71
  Q 89.63 74.71 84.25 75.76
  Q 83.74 75.86 83.27 75.62
  C 71.17 69.50 64.96 86.54 76.96 89.97
  A 0.45 0.44 -6.4 0 1 77.23 90.18
  L 82.24 98.19
  Q 82.48 98.57 82.18 98.92
  C 70.39 112.52 78.01 123.98 95.13 121.03
  Q 95.69 120.93 95.88 121.47
  Q 97.53 126.13 100.61 129.97
  Q 100.93 130.37 100.85 130.87
  C 98.94 144.25 118.83 143.32 116.51 130.87
  Q 116.41 130.34 116.75 129.92
  Q 119.69 126.22 121.28 121.78
  A 1.19 1.19 0.0 0 1 122.62 121.02
  C 127.83 122.02 135.21 121.66 138.76 117.54
  C 143.61 111.93 139.15 103.98 135.19 98.82
  Q 134.92 98.46 135.17 98.08
  L 139.59 91.27
  A 0.53 0.52 9.5 0 1 139.89 91.06
  C 152.49 88.09 147.23 71.55 135.48 75.96
  Q 135.02 76.13 134.53 76.04
  Q 128.42 74.86 122.15 75.54
  Q 121.60 75.60 121.41 75.08"
/>
<path stroke="#9db3d1" vector-effect="non-scaling-stroke" d="
  M 118.30 75.83
  C 114.00 62.59 103.38 62.51 99.07 75.82
  Q 98.91 76.30 99.39 76.46
  L 108.37 79.47
  A 0.98 0.98 0.0 0 0 109.01 79.47
  L 118.02 76.39
  Q 118.44 76.25 118.30 75.83"
/>
<path stroke="#eea39d" vector-effect="non-scaling-stroke" d="
  M 83.27 82.08
  A 4.84 4.84 0.0 0 0 78.43 77.24
  A 4.84 4.84 0.0 0 0 73.59 82.08
  A 4.84 4.84 0.0 0 0 78.43 86.92
  A 4.84 4.84 0.0 0 0 83.27 82.08"
/>
<path stroke="#9db3d1" vector-effect="non-scaling-stroke" d="
  M 93.99 78.58
  L 86.60 78.37
  Q 85.78 78.35 85.98 79.14
  Q 87.87 86.50 81.22 89.64
  Q 80.59 89.94 80.96 90.53
  L 84.06 95.44
  A 0.54 0.53 -36.3 0 0 84.87 95.56
  L 92.03 89.34
  Q 92.41 89.01 92.51 88.51
  L 94.34 79.02
  A 0.37 0.37 0.0 0 0 93.99 78.58"
/>
<path stroke="#9db3d1" vector-effect="non-scaling-stroke" d="
  M 136.22 90.59
  Q 129.31 86.85 132.01 79.23
  Q 132.18 78.77 131.69 78.68
  Q 127.55 77.92 123.39 78.63
  Q 122.90 78.72 123.00 79.20
  L 124.85 88.47
  A 1.22 1.19 -75.6 0 0 125.24 89.15
  L 132.36 95.56
  A 0.54 0.54 0.0 0 0 133.17 95.46
  L 136.27 90.79
  A 0.15 0.14 32.6 0 0 136.22 90.59"
/>
<path stroke="#eea39d" vector-effect="non-scaling-stroke" d="
  M 144.07 83.04
  A 4.84 4.84 0.0 0 0 139.23 78.20
  A 4.84 4.84 0.0 0 0 134.39 83.04
  A 4.84 4.84 0.0 0 0 139.23 87.88
  A 4.84 4.84 0.0 0 0 144.07 83.04"
/>
<path stroke="#9db3d1" vector-effect="non-scaling-stroke" d="
  M 96.16 85.79
  A 0.31 0.31 0.0 0 0 96.62 86.12
  L 104.06 81.70
  A 0.31 0.31 0.0 0 0 103.99 81.14
  L 97.93 79.40
  A 0.31 0.31 0.0 0 0 97.54 79.63
  L 96.16 85.79"
/>
<path stroke="#9db3d1" vector-effect="non-scaling-stroke" d="
  M 113.35 81.22
  A 0.31 0.31 0.0 0 0 113.28 81.78
  L 120.75 86.07
  A 0.31 0.31 0.0 0 0 121.20 85.73
  L 119.74 79.63
  A 0.31 0.31 0.0 0 0 119.35 79.41
  L 113.35 81.22"
/>
<path stroke="#9db3d1" vector-effect="non-scaling-stroke" d="
  M 121.68 90.29
  L 109.19 83.14
  A 1.04 1.02 -44.5 0 0 108.14 83.14
  L 95.93 90.16
  A 0.75 0.73 -12.4 0 0 95.56 90.72
  Q 94.65 98.22 95.55 105.71
  Q 95.61 106.27 96.10 106.55
  L 107.89 113.39
  Q 108.43 113.70 108.99 113.45
  Q 115.74 110.42 121.66 105.98
  Q 122.18 105.59 122.18 104.94
  L 122.11 91.02
  A 0.87 0.83 15.7 0 0 121.68 90.29"
/>
<path stroke="#9db3d1" vector-effect="non-scaling-stroke" d="
  M 87.33 99.13
  L 91.65 102.99
  Q 92.02 103.32 92.02 102.83
  L 92.15 94.18
  A 0.40 0.40 0.0 0 0 91.48 93.87
  L 87.33 97.54
  Q 86.44 98.33 87.33 99.13"
/>
<path stroke="#9db3d1" vector-effect="non-scaling-stroke" d="
  M 125.82 93.76
  A 0.32 0.32 0.0 0 0 125.28 93.99
  L 125.22 102.62
  A 0.32 0.32 0.0 0 0 125.75 102.86
  L 130.64 98.58
  A 0.32 0.32 0.0 0 0 130.65 98.11
  L 125.82 93.76"
/>
<path stroke="#9db3d1" vector-effect="non-scaling-stroke" d="
  M 91.45 106.93
  L 84.92 101.08
  Q 84.57 100.77 84.29 101.13
  C 75.87 111.88 79.39 120.66 93.94 117.97
  Q 94.44 117.88 94.34 117.38
  L 92.61 108.94
  Q 92.36 107.75 91.45 106.93"
/>
<path stroke="#9db3d1" vector-effect="non-scaling-stroke" d="
  M 123.33 117.98
  C 137.67 120.25 141.53 112.82 133.23 101.30
  Q 132.85 100.77 132.35 101.21
  L 125.33 107.42
  Q 124.92 107.78 124.82 108.32
  L 123.02 117.54
  Q 122.95 117.92 123.33 117.98"
/>
<path stroke="#9db3d1" vector-effect="non-scaling-stroke" d="
  M 104.62 115.16
  L 96.56 110.59
  Q 96.09 110.33 96.20 110.86
  L 97.45 116.77
  A 0.64 0.64 0.0 0 0 98.26 117.25
  L 104.59 115.37
  A 0.12 0.11 -38.1 0 0 104.62 115.16"
/>
<path stroke="#9db3d1" vector-effect="non-scaling-stroke" d="
  M 121.20 110.94
  A 0.31 0.31 0.0 0 0 120.74 110.60
  L 113.37 114.91
  A 0.31 0.31 0.0 0 0 113.44 115.47
  L 119.45 117.29
  A 0.31 0.31 0.0 0 0 119.84 117.06
  L 121.20 110.94"
/>
<path stroke="#9db3d1" vector-effect="non-scaling-stroke" d="
  M 118.29 120.38
  L 109.20 117.29
  Q 108.69 117.11 108.19 117.29
  L 99.22 120.34
  Q 98.59 120.55 98.90 121.14
  L 102.03 127.06
  Q 102.31 127.59 102.78 127.20
  Q 108.51 122.38 114.47 127.03
  Q 115.09 127.51 115.45 126.82
  L 118.50 120.91
  A 0.37 0.37 0.0 0 0 118.29 120.38"
/>
<path stroke="#eea39d" vector-effect="non-scaling-stroke" d="
  M 113.47 132.74
  A 4.83 4.83 0.0 0 0 108.64 127.91
  A 4.83 4.83 0.0 0 0 103.81 132.74
  A 4.83 4.83 0.0 0 0 108.64 137.57
  A 4.83 4.83 0.0 0 0 113.47 132.74"
/>
<path stroke="#8c576f" vector-effect="non-scaling-stroke" d="
  M 119.91 98.34
  A 11.07 11.07 0.0 0 0 108.84 87.27
  A 11.07 11.07 0.0 0 0 97.77 98.34
  A 11.07 11.07 0.0 0 0 108.84 109.41
  A 11.07 11.07 0.0 0 0 119.91 98.34"
/>
</g>
<path fill="#3a67a2" d="
  M 107.42 211.09
  C 68.58 189.36 23.39 158.13 17.35 109.66
  Q 16.60 103.64 16.54 89.69
  Q 16.43 59.63 16.53 29.55
  Q 16.53 29.06 17.00 28.92
  C 75.36 10.85 139.99 12.41 198.62 28.84
  A 0.89 0.87 -82.2 0 1 199.25 29.69
  Q 199.24 62.95 199.26 96.53
  Q 199.26 107.37 197.97 113.89
  C 189.46 157.05 145.50 192.29 108.31 211.11
  Q 107.86 211.34 107.42 211.09
  Z
  M 108.26 196.35
  C 134.98 183.05 158.54 164.39 176.72 140.24
  Q 188.20 124.98 191.61 105.68
  Q 192.82 98.86 192.78 85.77
  Q 192.70 59.20 192.77 32.82
  A 0.82 0.82 0.0 0 0 192.17 32.03
  Q 119.44 11.85 46.06 26.26
  Q 34.67 28.49 23.74 32.08
  Q 23.24 32.24 23.24 32.77
  Q 23.22 59.61 23.30 86.44
  C 23.36 106.23 26.42 123.54 37.77 139.48
  C 55.41 164.23 80.75 181.08 107.29 196.32
  A 1.02 1.01 46.4 0 0 108.26 196.35
  Z"
/>
<path fill="#3a67a2" d="
  M 100.92 50.34
  L 112.25 50.21
  A 1.02 1.02 0.0 0 0 113.14 49.66
  L 118.52 39.28
  A 0.78 0.78 0.0 0 1 119.44 38.89
  L 131.66 42.51
  Q 132.27 42.69 132.22 43.34
  L 131.19 54.93
  A 0.93 0.93 0.0 0 0 131.59 55.78
  L 140.73 62.01
  A 1.32 1.31 -41.4 0 0 142.06 62.09
  L 152.40 56.93
  Q 152.85 56.70 153.15 57.10
  L 161.29 67.56
  Q 161.70 68.08 161.26 68.57
  L 153.61 77.38
  Q 153.26 77.79 153.44 78.29
  L 157.30 89.03
  Q 157.48 89.51 157.98 89.59
  L 169.15 91.35
  Q 169.79 91.45 169.88 92.09
  Q 170.88 98.78 170.26 105.51
  A 0.75 0.75 0.0 0 1 169.68 106.17
  L 158.50 108.69
  Q 157.99 108.80 157.85 109.31
  L 154.71 120.14
  Q 154.58 120.61 154.91 120.96
  L 163.04 129.42
  Q 163.54 129.94 163.13 130.54
  L 155.72 141.30
  A 0.72 0.71 28.7 0 1 154.85 141.55
  L 144.11 136.91
  Q 143.63 136.71 143.22 137.03
  L 134.19 144.01
  Q 133.81 144.31 133.88 144.78
  L 135.58 156.32
  A 0.86 0.86 0.0 0 1 135.02 157.25
  L 122.74 161.64
  A 0.83 0.82 64.7 0 1 121.75 161.28
  L 115.89 151.34
  Q 115.59 150.84 115.01 150.85
  L 103.65 151.08
  Q 103.19 151.09 102.98 151.49
  L 97.56 161.96
  Q 97.24 162.58 96.57 162.38
  L 84.16 158.71
  Q 83.40 158.48 83.48 157.71
  L 84.52 146.22
  Q 84.57 145.67 84.11 145.36
  L 74.78 138.97
  Q 74.37 138.69 73.92 138.92
  L 63.42 144.16
  Q 62.88 144.43 62.51 143.96
  L 54.44 133.49
  Q 54.03 132.95 54.47 132.44
  L 62.14 123.70
  A 0.93 0.92 -34.2 0 0 62.32 122.78
  L 58.59 112.20
  Q 58.38 111.61 57.77 111.51
  L 46.31 109.58
  Q 45.72 109.48 45.71 108.89
  L 45.42 95.72
  Q 45.40 95.04 46.06 94.89
  L 57.30 92.38
  Q 57.87 92.25 58.03 91.69
  L 61.26 80.76
  Q 61.39 80.29 61.05 79.95
  L 52.96 71.83
  Q 52.60 71.46 52.84 71.00
  Q 56.03 65.02 60.45 59.88
  Q 60.82 59.45 61.34 59.67
  L 71.94 64.20
  Q 72.37 64.39 72.75 64.10
  L 81.93 57.06
  Q 82.23 56.83 82.18 56.45
  L 80.41 44.67
  Q 80.33 44.11 80.86 43.93
  L 93.31 39.58
  A 0.85 0.84 -24.7 0 1 94.32 39.95
  L 100.20 49.94
  Q 100.44 50.35 100.92 50.34
  Z
  M 121.41 75.08
  C 115.34 58.41 101.61 58.70 95.80 75.27
  A 0.68 0.67 14.8 0 1 95.03 75.71
  Q 89.63 74.71 84.25 75.76
  Q 83.74 75.86 83.27 75.62
  C 71.17 69.50 64.96 86.54 76.96 89.97
  A 0.45 0.44 -6.4 0 1 77.23 90.18
  L 82.24 98.19
  Q 82.48 98.57 82.18 98.92
  C 70.39 112.52 78.01 123.98 95.13 121.03
  Q 95.69 120.93 95.88 121.47
  Q 97.53 126.13 100.61 129.97
  Q 100.93 130.37 100.85 130.87
  C 98.94 144.25 118.83 143.32 116.51 130.87
  Q 116.41 130.34 116.75 129.92
  Q 119.69 126.22 121.28 121.78
  A 1.19 1.19 0.0 0 1 122.62 121.02
  C 127.83 122.02 135.21 121.66 138.76 117.54
  C 143.61 111.93 139.15 103.98 135.19 98.82
  Q 134.92 98.46 135.17 98.08
  L 139.59 91.27
  A 0.53 0.52 9.5 0 1 139.89 91.06
  C 152.49 88.09 147.23 71.55 135.48 75.96
  Q 135.02 76.13 134.53 76.04
  Q 128.42 74.86 122.15 75.54
  Q 121.60 75.60 121.41 75.08
  Z"
/>
<path fill="#ffffff" d="
  M 122.15 75.54
  Q 128.42 74.86 134.53 76.04
  Q 135.02 76.13 135.48 75.96
  C 147.23 71.55 152.49 88.09 139.89 91.06
  A 0.53 0.52 9.5 0 0 139.59 91.27
  L 135.17 98.08
  Q 134.92 98.46 135.19 98.82
  C 139.15 103.98 143.61 111.93 138.76 117.54
  C 135.21 121.66 127.83 122.02 122.62 121.02
  A 1.19 1.19 0.0 0 0 121.28 121.78
  Q 119.69 126.22 116.75 129.92
  Q 116.41 130.34 116.51 130.87
  C 118.83 143.32 98.94 144.25 100.85 130.87
  Q 100.93 130.37 100.61 129.97
  Q 97.53 126.13 95.88 121.47
  Q 95.69 120.93 95.13 121.03
  C 78.01 123.98 70.39 112.52 82.18 98.92
  Q 82.48 98.57 82.24 98.19
  L 77.23 90.18
  A 0.45 0.44 -6.4 0 0 76.96 89.97
  C 64.96 86.54 71.17 69.50 83.27 75.62
  Q 83.74 75.86 84.25 75.76
  Q 89.63 74.71 95.03 75.71
  A 0.68 0.67 14.8 0 0 95.80 75.27
  C 101.61 58.70 115.34 58.41 121.41 75.08
  Q 121.60 75.60 122.15 75.54
  Z
  M 118.30 75.83
  C 114.00 62.59 103.38 62.51 99.07 75.82
  Q 98.91 76.30 99.39 76.46
  L 108.37 79.47
  A 0.98 0.98 0.0 0 0 109.01 79.47
  L 118.02 76.39
  Q 118.44 76.25 118.30 75.83
  Z
  M 83.27 82.08
  A 4.84 4.84 0.0 0 0 78.43 77.24
  A 4.84 4.84 0.0 0 0 73.59 82.08
  A 4.84 4.84 0.0 0 0 78.43 86.92
  A 4.84 4.84 0.0 0 0 83.27 82.08
  Z
  M 93.99 78.58
  L 86.60 78.37
  Q 85.78 78.35 85.98 79.14
  Q 87.87 86.50 81.22 89.64
  Q 80.59 89.94 80.96 90.53
  L 84.06 95.44
  A 0.54 0.53 -36.3 0 0 84.87 95.56
  L 92.03 89.34
  Q 92.41 89.01 92.51 88.51
  L 94.34 79.02
  A 0.37 0.37 0.0 0 0 93.99 78.58
  Z
  M 136.22 90.59
  Q 129.31 86.85 132.01 79.23
  Q 132.18 78.77 131.69 78.68
  Q 127.55 77.92 123.39 78.63
  Q 122.90 78.72 123.00 79.20
  L 124.85 88.47
  A 1.22 1.19 -75.6 0 0 125.24 89.15
  L 132.36 95.56
  A 0.54 0.54 0.0 0 0 133.17 95.46
  L 136.27 90.79
  A 0.15 0.14 32.6 0 0 136.22 90.59
  Z
  M 144.07 83.04
  A 4.84 4.84 0.0 0 0 139.23 78.20
  A 4.84 4.84 0.0 0 0 134.39 83.04
  A 4.84 4.84 0.0 0 0 139.23 87.88
  A 4.84 4.84 0.0 0 0 144.07 83.04
  Z
  M 96.16 85.79
  A 0.31 0.31 0.0 0 0 96.62 86.12
  L 104.06 81.70
  A 0.31 0.31 0.0 0 0 103.99 81.14
  L 97.93 79.40
  A 0.31 0.31 0.0 0 0 97.54 79.63
  L 96.16 85.79
  Z
  M 113.35 81.22
  A 0.31 0.31 0.0 0 0 113.28 81.78
  L 120.75 86.07
  A 0.31 0.31 0.0 0 0 121.20 85.73
  L 119.74 79.63
  A 0.31 0.31 0.0 0 0 119.35 79.41
  L 113.35 81.22
  Z
  M 121.68 90.29
  L 109.19 83.14
  A 1.04 1.02 -44.5 0 0 108.14 83.14
  L 95.93 90.16
  A 0.75 0.73 -12.4 0 0 95.56 90.72
  Q 94.65 98.22 95.55 105.71
  Q 95.61 106.27 96.10 106.55
  L 107.89 113.39
  Q 108.43 113.70 108.99 113.45
  Q 115.74 110.42 121.66 105.98
  Q 122.18 105.59 122.18 104.94
  L 122.11 91.02
  A 0.87 0.83 15.7 0 0 121.68 90.29
  Z
  M 87.33 99.13
  L 91.65 102.99
  Q 92.02 103.32 92.02 102.83
  L 92.15 94.18
  A 0.40 0.40 0.0 0 0 91.48 93.87
  L 87.33 97.54
  Q 86.44 98.33 87.33 99.13
  Z
  M 125.82 93.76
  A 0.32 0.32 0.0 0 0 125.28 93.99
  L 125.22 102.62
  A 0.32 0.32 0.0 0 0 125.75 102.86
  L 130.64 98.58
  A 0.32 0.32 0.0 0 0 130.65 98.11
  L 125.82 93.76
  Z
  M 91.45 106.93
  L 84.92 101.08
  Q 84.57 100.77 84.29 101.13
  C 75.87 111.88 79.39 120.66 93.94 117.97
  Q 94.44 117.88 94.34 117.38
  L 92.61 108.94
  Q 92.36 107.75 91.45 106.93
  Z
  M 123.33 117.98
  C 137.67 120.25 141.53 112.82 133.23 101.30
  Q 132.85 100.77 132.35 101.21
  L 125.33 107.42
  Q 124.92 107.78 124.82 108.32
  L 123.02 117.54
  Q 122.95 117.92 123.33 117.98
  Z
  M 104.62 115.16
  L 96.56 110.59
  Q 96.09 110.33 96.20 110.86
  L 97.45 116.77
  A 0.64 0.64 0.0 0 0 98.26 117.25
  L 104.59 115.37
  A 0.12 0.11 -38.1 0 0 104.62 115.16
  Z
  M 121.20 110.94
  A 0.31 0.31 0.0 0 0 120.74 110.60
  L 113.37 114.91
  A 0.31 0.31 0.0 0 0 113.44 115.47
  L 119.45 117.29
  A 0.31 0.31 0.0 0 0 119.84 117.06
  L 121.20 110.94
  Z
  M 118.29 120.38
  L 109.20 117.29
  Q 108.69 117.11 108.19 117.29
  L 99.22 120.34
  Q 98.59 120.55 98.90 121.14
  L 102.03 127.06
  Q 102.31 127.59 102.78 127.20
  Q 108.51 122.38 114.47 127.03
  Q 115.09 127.51 115.45 126.82
  L 118.50 120.91
  A 0.37 0.37 0.0 0 0 118.29 120.38
  Z
  M 113.47 132.74
  A 4.83 4.83 0.0 0 0 108.64 127.91
  A 4.83 4.83 0.0 0 0 103.81 132.74
  A 4.83 4.83 0.0 0 0 108.64 137.57
  A 4.83 4.83 0.0 0 0 113.47 132.74
  Z"
/>
<path fill="#3a67a2" d="
  M 99.07 75.82
  C 103.38 62.51 114.00 62.59 118.30 75.83
  Q 118.44 76.25 118.02 76.39
  L 109.01 79.47
  A 0.98 0.98 0.0 0 1 108.37 79.47
  L 99.39 76.46
  Q 98.91 76.30 99.07 75.82
  Z"
/>
<circle fill="#dd463b" cx="78.43" cy="82.08" r="4.84"/>
<path fill="#3a67a2" d="
  M 93.99 78.58
  A 0.37 0.37 0.0 0 1 94.34 79.02
  L 92.51 88.51
  Q 92.41 89.01 92.03 89.34
  L 84.87 95.56
  A 0.54 0.53 -36.3 0 1 84.06 95.44
  L 80.96 90.53
  Q 80.59 89.94 81.22 89.64
  Q 87.87 86.50 85.98 79.14
  Q 85.78 78.35 86.60 78.37
  L 93.99 78.58
  Z"
/>
<path fill="#3a67a2" d="
  M 136.22 90.59
  A 0.15 0.14 32.6 0 1 136.27 90.79
  L 133.17 95.46
  A 0.54 0.54 0.0 0 1 132.36 95.56
  L 125.24 89.15
  A 1.22 1.19 -75.6 0 1 124.85 88.47
  L 123.00 79.20
  Q 122.90 78.72 123.39 78.63
  Q 127.55 77.92 131.69 78.68
  Q 132.18 78.77 132.01 79.23
  Q 129.31 86.85 136.22 90.59
  Z"
/>
<circle fill="#dd463b" cx="139.23" cy="83.04" r="4.84"/>
<path fill="#3a67a2" d="
  M 96.16 85.79
  L 97.54 79.63
  A 0.31 0.31 0.0 0 1 97.93 79.40
  L 103.99 81.14
  A 0.31 0.31 0.0 0 1 104.06 81.70
  L 96.62 86.12
  A 0.31 0.31 0.0 0 1 96.16 85.79
  Z"
/>
<path fill="#3a67a2" d="
  M 113.35 81.22
  L 119.35 79.41
  A 0.31 0.31 0.0 0 1 119.74 79.63
  L 121.20 85.73
  A 0.31 0.31 0.0 0 1 120.75 86.07
  L 113.28 81.78
  A 0.31 0.31 0.0 0 1 113.35 81.22
  Z"
/>
<path fill="#3a67a2" d="
  M 121.68 90.29
  A 0.87 0.83 15.7 0 1 122.11 91.02
  L 122.18 104.94
  Q 122.18 105.59 121.66 105.98
  Q 115.74 110.42 108.99 113.45
  Q 108.43 113.70 107.89 113.39
  L 96.10 106.55
  Q 95.61 106.27 95.55 105.71
  Q 94.65 98.22 95.56 90.72
  A 0.75 0.73 -12.4 0 1 95.93 90.16
  L 108.14 83.14
  A 1.04 1.02 -44.5 0 1 109.19 83.14
  L 121.68 90.29
  Z
  M 119.91 98.34
  A 11.07 11.07 0.0 0 0 108.84 87.27
  A 11.07 11.07 0.0 0 0 97.77 98.34
  A 11.07 11.07 0.0 0 0 108.84 109.41
  A 11.07 11.07 0.0 0 0 119.91 98.34
  Z"
/>
<circle fill="#dd463b" cx="108.84" cy="98.34" r="11.07"/>
<path fill="#3a67a2" d="
  M 87.33 99.13
  Q 86.44 98.33 87.33 97.54
  L 91.48 93.87
  A 0.40 0.40 0.0 0 1 92.15 94.18
  L 92.02 102.83
  Q 92.02 103.32 91.65 102.99
  L 87.33 99.13
  Z"
/>
<path fill="#3a67a2" d="
  M 125.82 93.76
  L 130.65 98.11
  A 0.32 0.32 0.0 0 1 130.64 98.58
  L 125.75 102.86
  A 0.32 0.32 0.0 0 1 125.22 102.62
  L 125.28 93.99
  A 0.32 0.32 0.0 0 1 125.82 93.76
  Z"
/>
<path fill="#3a67a2" d="
  M 91.45 106.93
  Q 92.36 107.75 92.61 108.94
  L 94.34 117.38
  Q 94.44 117.88 93.94 117.97
  C 79.39 120.66 75.87 111.88 84.29 101.13
  Q 84.57 100.77 84.92 101.08
  L 91.45 106.93
  Z"
/>
<path fill="#3a67a2" d="
  M 123.33 117.98
  Q 122.95 117.92 123.02 117.54
  L 124.82 108.32
  Q 124.92 107.78 125.33 107.42
  L 132.35 101.21
  Q 132.85 100.77 133.23 101.30
  C 141.53 112.82 137.67 120.25 123.33 117.98
  Z"
/>
<path fill="#3a67a2" d="
  M 104.62 115.16
  A 0.12 0.11 -38.1 0 1 104.59 115.37
  L 98.26 117.25
  A 0.64 0.64 0.0 0 1 97.45 116.77
  L 96.20 110.86
  Q 96.09 110.33 96.56 110.59
  L 104.62 115.16
  Z"
/>
<path fill="#3a67a2" d="
  M 121.20 110.94
  L 119.84 117.06
  A 0.31 0.31 0.0 0 1 119.45 117.29
  L 113.44 115.47
  A 0.31 0.31 0.0 0 1 113.37 114.91
  L 120.74 110.60
  A 0.31 0.31 0.0 0 1 121.20 110.94
  Z"
/>
<path fill="#3a67a2" d="
  M 118.29 120.38
  A 0.37 0.37 0.0 0 1 118.50 120.91
  L 115.45 126.82
  Q 115.09 127.51 114.47 127.03
  Q 108.51 122.38 102.78 127.20
  Q 102.31 127.59 102.03 127.06
  L 98.90 121.14
  Q 98.59 120.55 99.22 120.34
  L 108.19 117.29
  Q 108.69 117.11 109.20 117.29
  L 118.29 120.38
  Z"
/>
<circle fill="#dd463b" cx="108.64" cy="132.74" r="4.83"/>
</svg>
