<?xml version="1.0" encoding="UTF-8" standalone="no"?>
<!DOCTYPE svg PUBLIC "-//W3C//DTD SVG 1.1//EN" "http://www.w3.org/Graphics/SVG/1.1/DTD/svg11.dtd">
<svg xmlns="http://www.w3.org/2000/svg" version="1.1" viewBox="0.00 0.00 226.00 232.00">
<g stroke-width="2.00" fill="none" stroke-linecap="butt">
<path stroke="#5789a1" vector-effect="non-scaling-stroke" d="
  M 129.73 50.57
  Q 148.77 57.36 161.96 74.18
  A 0.63 0.63 0.0 0 0 162.96 74.16
  Q 163.71 73.14 164.79 72.28
  Q 164.89 72.21 165.03 72.25
  Q 165.21 72.31 165.09 72.44
  L 163.06 74.66
  A 0.81 0.80 61.2 0 0 162.87 75.34
  Q 163.30 77.67 164.31 77.74"
/>
<path stroke="#9b6f63" vector-effect="non-scaling-stroke" d="
  M 118.31 177.00
  Q 112.92 176.96 107.99 174.71"
/>
<path stroke="#9b6f63" vector-effect="non-scaling-stroke" d="
  M 133.48 117.93
  L 134.48 114.09
  Q 134.61 113.59 135.09 113.38
  C 140.24 111.17 149.55 106.98 152.68 101.41
  Q 152.95 100.93 152.75 100.41
  Q 151.80 98.03 148.90 98.30
  Q 138.84 99.23 129.63 104.83"
/>
<path stroke="#9b6f63" vector-effect="non-scaling-stroke" d="
  M 106.55 117.15
  L 88.55 127.35
  A 1.43 1.41 43.8 0 1 87.19 127.37
  L 80.84 124.02"
/>
<path stroke="#9b6f63" vector-effect="non-scaling-stroke" d="
  M 59.17 149.80
  Q 59.88 151.78 59.46 154.85"
/>
<path stroke="#9b6f63" vector-effect="non-scaling-stroke" d="
  M 119.23 131.81
  Q 118.99 130.52 120.05 129.41
  Q 120.60 128.84 120.65 128.40
  Q 120.71 127.81 120.51 127.16"
/>
<path stroke="#9b6f63" vector-effect="non-scaling-stroke" d="
  M 111.35 123.67
  L 90.28 131.81
  Q 89.80 131.99 89.70 132.51
  L 88.80 137.20"
/>
</g>
<path fill="#3a67a2" d="
  M 199.85 36.99
  Q 200.25 37.10 200.25 37.52
  Q 200.25 70.79 200.25 104.26
  Q 200.26 115.55 198.95 122.13
  C 190.34 165.39 146.45 200.20 109.56 219.13
  A 1.20 1.20 0.0 0 1 108.45 219.11
  C 69.32 197.68 24.67 166.11 18.39 117.77
  Q 17.62 111.83 17.56 97.81
  Q 17.41 67.86 17.54 37.69
  Q 17.54 37.11 18.10 36.94
  C 76.64 19.05 141.15 20.49 199.85 36.99
  Z
  M 192.99 40.08
  C 138.93 25.08 78.46 23.50 24.77 40.09
  Q 24.28 40.24 24.28 40.75
  Q 24.18 67.60 24.29 94.42
  C 24.38 115.71 27.82 132.68 40.57 150.18
  Q 43.21 153.80 52.56 163.86
  C 67.92 180.37 88.84 193.73 108.66 204.39
  Q 109.08 204.62 109.50 204.40
  C 135.47 191.12 157.15 174.21 175.75 150.81
  Q 188.84 134.36 192.59 113.67
  Q 193.84 106.78 193.79 93.76
  Q 193.69 67.21 193.77 41.12
  Q 193.78 40.30 192.99 40.08
  Z"
/>
<path fill="#dd463b" d="
  M 167.69 55.43
  L 168.54 54.59
  A 1.03 1.02 -63.3 0 1 169.43 54.29
  C 174.90 55.12 177.08 54.99 181.51 58.61
  Q 181.89 58.92 181.60 59.33
  L 178.74 63.28
  Q 178.43 63.70 178.06 63.34
  Q 175.32 60.69 171.95 59.04
  Q 162.32 54.31 152.53 49.94
  A 1.07 1.06 -43.9 0 0 151.66 49.93
  Q 148.59 51.21 146.54 48.55
  A 1.32 1.32 0.0 0 0 145.73 48.06
  L 134.72 46.17
  A 0.66 0.66 0.0 0 1 134.30 45.12
  L 136.55 42.09
  Q 136.90 41.62 137.44 41.39
  Q 138.38 40.99 138.80 41.69
  A 0.57 0.57 0.0 0 0 139.81 41.61
  Q 140.58 39.77 142.09 41.14
  A 0.65 0.64 50.7 0 0 142.84 41.22
  Q 145.62 39.70 148.62 39.31
  A 1.46 1.46 0.0 0 1 149.84 41.79
  L 148.43 43.19
  Q 148.24 43.38 148.44 43.57
  Q 148.54 43.67 148.63 43.76
  Q 148.81 43.95 148.95 43.74
  Q 150.75 41.22 153.51 42.84
  Q 154.06 43.16 154.32 42.57
  Q 154.89 41.26 156.34 40.95
  A 0.76 0.75 -25.3 0 1 157.09 41.21
  Q 158.63 43.04 161.01 43.05
  Q 161.53 43.05 161.95 43.36
  L 168.02 48.03
  Q 168.53 48.42 168.11 48.91
  L 166.75 50.45
  A 0.58 0.58 0.0 0 0 166.88 51.33
  L 168.48 52.33
  A 0.44 0.44 0.0 0 1 168.61 52.95
  L 167.18 55.00
  A 0.34 0.33 85.1 0 0 167.69 55.43
  Z"
/>
<path fill="#557bb8" d="
  M 144.30 50.06
  Q 143.51 50.55 143.29 51.50
  A 0.82 0.81 -73.1 0 1 142.21 52.08
  L 132.66 48.43
  A 0.85 0.85 0.0 0 1 133.09 46.79
  C 137.17 47.39 145.35 47.82 148.18 50.95
  Q 148.50 51.30 148.27 51.71
  Q 146.74 54.53 143.75 52.74
  Q 143.10 52.34 143.65 51.81
  Q 144.30 51.18 144.61 50.31
  Q 144.82 49.74 144.30 50.06
  Z"
/>
<path fill="#58978a" d="
  M 129.73 50.57
  Q 148.77 57.36 161.96 74.18
  A 0.63 0.63 0.0 0 0 162.96 74.16
  Q 163.71 73.14 164.79 72.28
  Q 164.89 72.21 165.03 72.25
  Q 165.21 72.31 165.09 72.44
  L 163.06 74.66
  A 0.81 0.80 61.2 0 0 162.87 75.34
  Q 163.30 77.67 164.31 77.74
  Q 166.44 81.92 168.25 85.90
  C 186.45 126.02 160.53 169.91 118.31 177.00
  Q 112.92 176.96 107.99 174.71
  Q 138.49 173.98 156.59 152.16
  A 3.75 3.75 0.0 0 0 156.79 147.65
  L 154.90 144.91
  A 0.96 0.94 38.0 0 1 154.79 144.06
  Q 155.80 141.05 153.96 139.01
  A 3.79 3.78 -51.9 0 1 153.44 134.70
  L 154.96 131.89
  Q 155.20 131.43 154.95 130.97
  L 151.02 124.03
  Q 150.76 123.57 150.81 123.04
  L 151.19 119.20
  A 1.12 1.12 0.0 0 0 149.92 117.98
  Q 147.67 118.29 146.14 116.79
  Q 145.72 116.39 145.16 116.27
  Q 143.34 115.89 142.17 117.19
  A 1.28 1.26 19.4 0 1 141.26 117.62
  L 133.48 117.93
  L 134.48 114.09
  Q 134.61 113.59 135.09 113.38
  C 140.24 111.17 149.55 106.98 152.68 101.41
  Q 152.95 100.93 152.75 100.41
  Q 151.80 98.03 148.90 98.30
  Q 138.84 99.23 129.63 104.83
  Q 127.01 101.60 127.90 100.95
  Q 131.01 98.68 134.17 96.18
  Q 134.57 95.87 134.50 95.37
  C 133.92 91.21 136.58 91.13 139.83 90.75
  C 143.69 90.31 146.08 89.00 151.04 89.06
  Q 151.50 89.06 151.50 89.52
  L 151.50 91.93
  A 0.70 0.70 0.0 0 0 152.00 92.60
  L 158.67 94.55
  Q 159.25 94.71 159.25 94.11
  L 159.25 93.73
  Q 159.25 93.11 159.83 92.90
  C 163.99 91.39 164.07 95.44 167.87 94.69
  Q 168.26 94.61 168.21 94.22
  Q 167.80 90.35 164.67 88.13
  A 0.92 0.92 0.0 0 1 164.28 87.42
  L 164.21 85.78
  A 0.88 0.88 0.0 0 0 162.48 85.59
  L 161.72 88.47
  Q 161.61 88.88 161.23 88.69
  Q 158.80 87.45 158.97 84.79
  Q 159.00 84.27 158.60 83.94
  L 155.17 81.08
  A 1.19 1.19 0.0 0 0 153.35 82.55
  Q 154.44 84.63 156.69 85.13
  A 0.82 0.82 0.0 0 1 157.31 86.11
  L 156.79 88.39
  Q 156.56 89.38 155.58 89.11
  L 153.49 88.51
  A 0.46 0.46 0.0 0 1 153.67 87.62
  L 154.98 87.78
  A 0.54 0.53 20.0 0 0 155.49 87.55
  Q 155.75 87.18 155.58 86.79
  C 155.38 86.33 151.39 83.76 150.52 82.81
  Q 150.00 82.25 149.64 82.92
  Q 148.80 84.46 147.25 83.72
  A 0.78 0.78 0.0 0 0 146.29 83.97
  L 142.75 88.83
  Q 142.49 89.18 142.06 89.21
  Q 139.75 89.40 137.43 89.12
  Q 135.95 88.94 136.01 87.63
  Q 136.03 87.24 135.91 86.86
  Q 135.51 85.50 135.91 84.16
  A 1.23 1.22 -3.8 0 1 136.60 83.38
  Q 139.05 82.32 141.51 83.25
  A 0.94 0.94 0.0 0 0 142.47 81.67
  Q 141.04 80.37 142.14 78.56
  Q 142.37 78.18 142.81 78.22
  Q 145.67 78.44 146.56 75.89
  Q 146.76 75.32 147.29 75.04
  Q 149.57 73.80 152.09 74.65
  Q 152.74 74.88 152.72 74.19
  L 152.65 72.38
  Q 152.61 71.50 151.80 71.84
  L 150.23 72.48
  A 0.52 0.51 -12.2 0 1 149.52 72.03
  Q 149.43 70.26 147.73 69.99
  A 0.67 0.67 0.0 0 1 147.18 69.20
  Q 147.57 67.13 149.76 66.76
  A 0.63 0.63 0.0 0 0 150.06 65.66
  C 127.67 47.23 99.19 45.15 74.70 60.28
  A 0.36 0.36 0.0 0 0 74.84 60.94
  Q 77.80 61.32 80.48 63.00
  Q 82.19 64.07 84.24 63.31
  A 0.49 0.49 0.0 0 0 84.10 62.36
  L 81.21 62.20
  A 0.49 0.49 0.0 0 1 80.75 61.71
  L 80.75 60.75
  Q 80.75 60.25 80.25 60.25
  L 78.29 60.25
  Q 77.58 60.25 78.07 59.74
  Q 80.64 57.08 84.31 57.51
  Q 84.78 57.56 85.05 57.95
  Q 87.64 61.62 90.94 58.36
  A 0.42 0.42 0.0 0 1 91.59 58.44
  Q 92.03 59.14 91.36 59.89
  Q 89.88 61.54 87.67 61.25
  Q 87.18 61.19 87.04 61.66
  Q 86.59 63.24 88.46 63.93
  A 2.12 2.11 -63.4 0 0 90.96 63.10
  Q 91.62 62.10 92.63 62.17
  Q 93.02 62.19 93.41 62.12
  Q 94.35 61.94 94.25 61.24
  Q 94.19 60.84 93.83 60.67
  L 93.42 60.47
  A 1.02 1.02 0.0 0 1 93.86 58.53
  L 97.98 58.53
  Q 98.67 58.53 98.27 59.10
  C 97.76 59.83 96.74 60.30 96.65 61.09
  Q 96.54 62.00 97.81 62.82
  A 0.95 0.95 0.0 0 0 99.15 61.55
  C 98.57 60.51 99.52 59.40 100.56 59.03
  C 105.15 57.41 107.12 58.88 111.13 60.63
  Q 111.72 60.88 111.54 61.50
  Q 111.05 63.21 112.64 63.29
  A 0.63 0.63 0.0 0 1 113.19 64.16
  Q 112.46 65.92 110.53 65.46
  A 0.81 0.80 18.6 0 0 109.60 65.92
  L 109.17 66.92
  Q 108.93 67.47 108.36 67.33
  L 103.69 66.21
  A 0.42 0.41 38.6 0 1 103.60 65.43
  L 106.91 63.84
  Q 107.43 63.59 107.12 63.11
  C 105.74 60.97 101.82 62.19 100.45 63.55
  Q 100.11 63.88 99.65 63.94
  L 98.45 64.10
  Q 97.97 64.17 98.19 64.60
  Q 98.34 64.91 98.32 65.35
  Q 98.30 65.73 97.98 65.94
  L 96.37 67.07
  Q 95.76 67.50 95.50 66.80
  L 95.12 65.79
  A 0.70 0.70 0.0 0 0 94.13 65.41
  L 87.26 69.08
  A 0.66 0.65 68.9 0 0 86.94 69.81
  Q 87.82 73.37 91.61 72.96
  A 0.58 0.57 -3.1 0 1 92.25 73.53
  L 92.25 76.25
  Q 92.25 76.76 92.75 76.75
  Q 92.90 76.75 93.08 76.79
  A 0.65 0.65 0.0 0 0 93.85 76.28
  Q 94.49 73.13 97.64 72.97
  A 1.02 1.01 -12.3 0 0 98.53 71.59
  C 96.56 66.53 101.36 66.81 104.28 67.96
  Q 104.91 68.21 104.78 68.88
  L 104.55 70.11
  A 0.66 0.66 0.0 0 0 105.47 70.84
  L 108.51 69.49
  A 0.42 0.42 0.0 0 1 109.09 69.98
  Q 108.34 72.92 110.85 73.96
  Q 111.37 74.17 111.48 74.73
  Q 111.93 77.03 109.64 77.39
  Q 109.43 77.42 109.36 77.53
  Q 109.27 77.65 109.24 77.83
  A 0.48 0.48 0.0 0 0 109.64 78.39
  Q 111.39 78.67 112.26 80.08
  A 0.68 0.67 82.3 0 1 111.50 81.08
  L 107.98 80.05
  A 0.67 0.67 0.0 0 1 107.54 79.17
  Q 107.81 78.45 108.43 77.97
  A 0.31 0.31 0.0 0 0 108.50 77.56
  L 108.23 77.17
  A 0.46 0.46 0.0 0 0 107.51 77.12
  Q 106.44 78.34 104.77 77.97
  Q 104.34 77.87 104.07 77.52
  Q 103.04 76.21 101.50 77.14
  A 0.72 0.71 -46.7 0 0 101.53 78.38
  L 103.05 79.18
  A 0.47 0.47 0.0 0 1 102.73 80.06
  L 100.83 79.66
  Q 100.49 79.59 100.25 79.84
  L 97.20 83.12
  A 0.81 0.78 9.2 0 1 96.97 83.28
  Q 91.98 85.34 89.84 90.22
  Q 89.62 90.72 89.17 91.04
  L 84.55 94.41
  A 1.00 0.99 -19.7 0 0 84.14 95.27
  L 84.28 97.95
  Q 84.32 98.70 83.58 98.62
  Q 81.42 98.41 81.65 96.39
  A 0.84 0.84 0.0 0 0 80.81 95.46
  C 75.57 95.56 70.06 94.79 68.46 101.41
  Q 67.89 103.75 69.00 105.09
  A 1.30 1.28 70.4 0 0 69.97 105.56
  Q 73.53 105.65 75.86 102.93
  A 0.81 0.81 0.0 0 1 77.28 103.42
  Q 77.34 105.08 76.10 106.15
  A 0.48 0.47 28.6 0 0 76.35 106.98
  L 79.08 107.36
  A 0.73 0.72 3.8 0 1 79.70 108.06
  L 79.78 111.62
  A 1.88 1.87 -78.3 0 0 80.88 113.30
  Q 85.42 115.35 87.34 111.11
  A 0.85 0.83 6.8 0 1 87.95 110.64
  Q 91.10 110.10 93.18 112.37
  Q 93.61 112.84 94.23 112.98
  Q 96.19 113.41 97.60 112.12
  A 0.87 0.87 0.0 0 1 98.89 112.24
  L 101.80 116.21
  A 0.48 0.45 69.6 0 0 102.19 116.40
  Q 104.61 116.32 106.55 117.15
  L 88.55 127.35
  A 1.43 1.41 43.8 0 1 87.19 127.37
  L 80.84 124.02
  Q 80.34 120.89 83.75 119.76
  A 0.72 0.70 77.8 0 0 84.22 119.01
  L 83.88 115.92
  Q 83.82 115.35 83.24 115.29
  L 79.36 114.93
  A 1.11 1.10 -17.9 0 1 78.63 114.56
  L 75.39 110.96
  Q 74.99 110.52 74.42 110.38
  L 71.27 109.65
  Q 70.75 109.53 70.75 109.00
  L 70.75 108.29
  Q 70.75 107.59 70.07 107.77
  Q 64.07 109.41 61.20 104.26
  Q 60.91 103.75 61.17 103.22
  L 61.66 102.21
  A 0.69 0.69 0.0 0 0 61.54 101.42
  Q 58.29 98.04 57.60 93.43
  A 0.58 0.58 0.0 0 0 56.44 93.53
  Q 56.53 97.55 59.29 100.51
  Q 59.63 100.88 59.27 101.24
  L 58.62 101.90
  A 0.85 0.85 0.0 0 1 57.45 101.93
  Q 53.52 98.41 54.32 93.07
  Q 54.41 92.43 53.82 92.17
  L 52.20 91.46
  A 0.69 0.66 -80.8 0 1 51.81 90.89
  L 51.72 88.98
  A 0.31 0.31 0.0 0 0 51.11 88.89
  Q 39.28 121.73 59.17 149.80
  Q 59.88 151.78 59.46 154.85
  C 17.67 103.72 66.23 30.12 129.73 50.57
  Z"
/>
<path fill="#557bb8" d="
  M 164.31 77.74
  Q 163.30 77.67 162.87 75.34
  A 0.81 0.80 61.2 0 1 163.06 74.66
  L 165.09 72.44
  Q 165.21 72.31 165.03 72.25
  Q 164.89 72.21 164.79 72.28
  Q 163.71 73.14 162.96 74.16
  A 0.63 0.63 0.0 0 1 161.96 74.18
  Q 148.77 57.36 129.73 50.57
  Q 130.02 48.32 130.93 48.66
  Q 138.68 51.57 146.56 54.47
  A 0.62 0.62 0.0 0 0 147.32 54.17
  C 149.06 50.79 151.52 50.31 154.99 51.90
  Q 169.88 58.74 173.99 61.00
  Q 179.02 63.79 179.15 70.18
  C 179.18 71.70 178.18 73.20 176.78 73.39
  Q 170.17 74.31 164.31 77.74
  Z"
/>
<path fill="#dd463b" d="
  M 129.63 104.83
  Q 138.84 99.23 148.90 98.30
  Q 151.80 98.03 152.75 100.41
  Q 152.95 100.93 152.68 101.41
  C 149.55 106.98 140.24 111.17 135.09 113.38
  Q 134.61 113.59 134.48 114.09
  L 133.48 117.93
  L 132.33 123.01
  Q 132.22 123.49 132.56 123.84
  C 134.04 125.37 132.50 127.02 131.35 128.13
  A 1.32 1.28 75.6 0 0 130.99 128.76
  L 129.73 134.08
  Q 129.59 134.67 130.09 135.00
  L 130.66 135.38
  Q 131.07 135.65 130.95 136.12
  Q 130.37 138.26 128.54 139.51
  A 0.91 0.87 -18.0 0 0 128.15 140.24
  Q 128.11 144.94 124.65 147.91
  Q 124.00 148.47 124.00 147.62
  Q 123.97 143.32 121.14 140.16
  A 0.71 0.71 0.0 0 1 121.27 139.09
  L 121.97 138.60
  Q 122.37 138.34 122.31 137.86
  L 121.81 133.83
  Q 121.76 133.46 121.40 133.39
  Q 120.24 133.16 119.23 131.81
  Q 118.99 130.52 120.05 129.41
  Q 120.60 128.84 120.65 128.40
  Q 120.71 127.81 120.51 127.16
  L 118.28 121.39
  Q 118.06 120.81 117.49 121.05
  L 111.35 123.67
  L 90.28 131.81
  Q 89.80 131.99 89.70 132.51
  L 88.80 137.20
  L 87.53 143.10
  A 1.60 1.60 0.0 0 1 84.40 143.10
  L 83.50 139.00
  Q 83.35 138.29 82.76 138.72
  C 71.56 146.85 74.44 158.40 84.83 165.38
  Q 95.87 172.80 107.99 174.71
  Q 112.92 176.96 118.31 177.00
  Q 124.40 178.47 130.45 178.24
  Q 131.23 178.21 130.51 178.51
  Q 129.57 178.90 128.82 178.92
  C 108.14 179.66 70.61 176.08 59.46 154.85
  Q 59.88 151.78 59.17 149.80
  C 62.19 139.83 70.92 134.62 79.93 131.10
  Q 80.52 130.87 80.12 130.38
  L 75.17 124.34
  Q 74.65 123.71 75.41 123.40
  L 77.30 122.62
  A 1.07 1.06 -42.4 0 1 78.20 122.66
  L 80.84 124.02
  L 87.19 127.37
  A 1.43 1.41 43.8 0 0 88.55 127.35
  L 106.55 117.15
  L 113.41 113.41
  Q 113.80 113.19 113.64 112.78
  Q 112.23 109.24 109.67 106.46
  A 0.70 0.69 -36.1 0 0 108.79 106.33
  L 108.12 106.74
  Q 107.59 107.06 107.14 106.64
  Q 105.71 105.33 106.27 103.56
  Q 106.44 103.01 106.08 102.56
  L 103.66 99.59
  Q 103.33 99.18 102.83 99.35
  L 102.07 99.60
  Q 101.51 99.79 101.19 99.29
  Q 100.32 97.92 100.22 96.29
  Q 100.19 95.79 99.85 95.41
  L 96.94 92.24
  Q 96.47 91.73 97.14 91.55
  C 99.34 90.95 100.56 91.05 102.77 92.18
  Q 105.32 93.48 109.19 93.54
  Q 111.05 93.56 110.46 95.32
  Q 110.29 95.83 110.77 96.05
  L 116.13 98.57
  Q 116.61 98.79 117.12 98.63
  Q 119.90 97.70 120.66 100.28
  Q 120.81 100.79 121.29 101.01
  L 129.63 104.83
  Z"
/>
<path fill="#58978a" d="
  M 111.35 123.67
  L 117.05 123.98
  A 0.96 0.96 0.0 0 1 117.85 124.50
  Q 118.86 126.48 120.51 127.16
  Q 120.71 127.81 120.65 128.40
  Q 120.60 128.84 120.05 129.41
  Q 118.99 130.52 119.23 131.81
  Q 117.76 135.49 117.81 139.63
  Q 117.82 140.16 117.52 140.60
  Q 115.79 143.23 112.66 142.72
  Q 112.17 142.64 111.73 142.89
  C 109.67 144.05 110.74 146.73 111.07 148.41
  A 1.07 1.05 61.3 0 1 110.82 149.30
  C 107.10 153.40 106.67 157.23 100.38 158.20
  Q 99.88 158.28 99.71 158.53
  Q 99.57 158.74 99.61 158.98
  Q 99.68 159.50 100.21 159.50
  L 100.73 159.50
  A 0.57 0.57 0.0 0 1 101.29 160.18
  Q 101.07 161.30 100.13 161.97
  A 0.80 0.79 -55.9 0 0 100.40 163.39
  L 102.21 163.83
  Q 102.93 164.01 102.56 164.65
  Q 100.59 168.00 103.87 169.36
  A 0.96 0.96 0.0 0 1 103.69 171.19
  C 98.65 172.20 95.17 166.54 93.64 162.62
  Q 93.46 162.16 93.61 161.70
  Q 94.77 157.95 92.05 155.42
  A 0.99 0.97 28.0 0 1 91.76 154.51
  L 92.51 150.90
  Q 92.64 150.25 92.10 149.86
  L 91.71 149.57
  Q 91.26 149.23 91.25 148.67
  Q 91.24 144.33 91.27 140.01
  C 91.28 138.33 90.36 137.41 88.80 137.20
  L 89.70 132.51
  Q 89.80 131.99 90.28 131.81
  L 111.35 123.67
  Z"
/>
</svg>
