<svg id="visual" viewBox="0 0 960 150" width="960" height="150" xmlns="http://www.w3.org/2000/svg" xmlns:xlink="http://www.w3.org/1999/xlink" version="1.1"><rect x="0" y="0" width="960" height="150" fill="#f4f4f4"></rect><path d="M0 82L14.5 78.8C29 75.7 58 69.3 87.2 68.3C116.3 67.3 145.7 71.7 174.8 76.7C204 81.7 233 87.3 262 88C291 88.7 320 84.3 349 79.7C378 75 407 70 436.2 73C465.3 76 494.7 87 523.8 86.7C553 86.3 582 74.7 611 71.7C640 68.7 669 74.3 698 79.3C727 84.3 756 88.7 785.2 88C814.3 87.3 843.7 81.7 872.8 76.7C902 71.7 931 67.3 945.5 65.2L960 63L960 0L945.5 0C931 0 902 0 872.8 0C843.7 0 814.3 0 785.2 0C756 0 727 0 698 0C669 0 640 0 611 0C582 0 553 0 523.8 0C494.7 0 465.3 0 436.2 0C407 0 378 0 349 0C320 0 291 0 262 0C233 0 204 0 174.8 0C145.7 0 116.3 0 87.2 0C58 0 29 0 14.5 0L0 0Z" fill="#94d2d3"></path><path d="M0 81L14.5 80C29 79 58 77 87.2 73.7C116.3 70.3 145.7 65.7 174.8 61.8C204 58 233 55 262 55C291 55 320 58 349 61.7C378 65.3 407 69.7 436.2 72.7C465.3 75.7 494.7 77.3 523.8 75.8C553 74.3 582 69.7 611 67.7C640 65.7 669 66.3 698 69.3C727 72.3 756 77.7 785.2 78.8C814.3 80 843.7 77 872.8 72.8C902 68.7 931 63.3 945.5 60.7L960 58L960 0L945.5 0C931 0 902 0 872.8 0C843.7 0 814.3 0 785.2 0C756 0 727 0 698 0C669 0 640 0 611 0C582 0 553 0 523.8 0C494.7 0 465.3 0 436.2 0C407 0 378 0 349 0C320 0 291 0 262 0C233 0 204 0 174.8 0C145.7 0 116.3 0 87.2 0C58 0 29 0 14.5 0L0 0Z" fill="#77b2b1"></path><path d="M0 46L14.5 47.5C29 49 58 52 87.2 54.3C116.3 56.7 145.7 58.3 174.8 60.5C204 62.7 233 65.3 262 66.7C291 68 320 68 349 64.7C378 61.3 407 54.7 436.2 53.5C465.3 52.3 494.7 56.7 523.8 59.8C553 63 582 65 611 65.5C640 66 669 65 698 63.5C727 62 756 60 785.2 60.3C814.3 60.7 843.7 63.3 872.8 62C902 60.7 931 55.3 945.5 52.7L960 50L960 0L945.5 0C931 0 902 0 872.8 0C843.7 0 814.3 0 785.2 0C756 0 727 0 698 0C669 0 640 0 611 0C582 0 553 0 523.8 0C494.7 0 465.3 0 436.2 0C407 0 378 0 349 0C320 0 291 0 262 0C233 0 204 0 174.8 0C145.7 0 116.3 0 87.2 0C58 0 29 0 14.5 0L0 0Z" fill="#5c9391"></path><path d="M0 33L14.5 34.5C29 36 58 39 87.2 40C116.3 41 145.7 40 174.8 39.7C204 39.3 233 39.7 262 41.8C291 44 320 48 349 47C378 46 407 40 436.2 36.5C465.3 33 494.7 32 523.8 35.2C553 38.3 582 45.7 611 49.3C640 53 669 53 698 52.7C727 52.3 756 51.7 785.2 51.2C814.3 50.7 843.7 50.3 872.8 49.7C902 49 931 48 945.5 47.5L960 47L960 0L945.5 0C931 0 902 0 872.8 0C843.7 0 814.3 0 785.2 0C756 0 727 0 698 0C669 0 640 0 611 0C582 0 553 0 523.8 0C494.7 0 465.3 0 436.2 0C407 0 378 0 349 0C320 0 291 0 262 0C233 0 204 0 174.8 0C145.7 0 116.3 0 87.2 0C58 0 29 0 14.5 0L0 0Z" fill="#417572"></path><path d="M0 32L14.5 31.5C29 31 58 30 87.2 30C116.3 30 145.7 31 174.8 31.7C204 32.3 233 32.7 262 30.8C291 29 320 25 349 24.2C378 23.3 407 25.7 436.2 25.7C465.3 25.7 494.7 23.3 523.8 24.7C553 26 582 31 611 33.3C640 35.7 669 35.3 698 33.7C727 32 756 29 785.2 27.2C814.3 25.3 843.7 24.7 872.8 25.3C902 26 931 28 945.5 29L960 30L960 0L945.5 0C931 0 902 0 872.8 0C843.7 0 814.3 0 785.2 0C756 0 727 0 698 0C669 0 640 0 611 0C582 0 553 0 523.8 0C494.7 0 465.3 0 436.2 0C407 0 378 0 349 0C320 0 291 0 262 0C233 0 204 0 174.8 0C145.7 0 116.3 0 87.2 0C58 0 29 0 14.5 0L0 0Z" fill="#265854"></path><path d="M0 18L14.5 18C29 18 58 18 87.2 16.8C116.3 15.7 145.7 13.3 174.8 12.7C204 12 233 13 262 13.5C291 14 320 14 349 13.7C378 13.3 407 12.7 436.2 13.3C465.3 14 494.7 16 523.8 16C553 16 582 14 611 13.3C640 12.7 669 13.3 698 12.8C727 12.3 756 10.7 785.2 10.8C814.3 11 843.7 13 872.8 14.2C902 15.3 931 15.7 945.5 15.8L960 16L960 0L945.5 0C931 0 902 0 872.8 0C843.7 0 814.3 0 785.2 0C756 0 727 0 698 0C669 0 640 0 611 0C582 0 553 0 523.8 0C494.7 0 465.3 0 436.2 0C407 0 378 0 349 0C320 0 291 0 262 0C233 0 204 0 174.8 0C145.7 0 116.3 0 87.2 0C58 0 29 0 14.5 0L0 0Z" fill="#0a3d38"></path></svg>