<svg id="visual" viewBox="0 0 960 150" width="960" height="150" xmlns="http://www.w3.org/2000/svg" xmlns:xlink="http://www.w3.org/1999/xlink" version="1.1"><rect x="0" y="0" width="960" height="150" fill="#f4f4f4"></rect><path d="M0 81L14.5 78.2C29 75.3 58 69.7 87.2 69.3C116.3 69 145.7 74 174.8 80.7C204 87.3 233 95.7 262 97.8C291 100 320 96 349 93.8C378 91.7 407 91.3 436.2 90.5C465.3 89.7 494.7 88.3 523.8 89.2C553 90 582 93 611 91.3C640 89.7 669 83.3 698 81.7C727 80 756 83 785.2 85C814.3 87 843.7 88 872.8 81C902 74 931 59 945.5 51.5L960 44L960 151L945.5 151C931 151 902 151 872.8 151C843.7 151 814.3 151 785.2 151C756 151 727 151 698 151C669 151 640 151 611 151C582 151 553 151 523.8 151C494.7 151 465.3 151 436.2 151C407 151 378 151 349 151C320 151 291 151 262 151C233 151 204 151 174.8 151C145.7 151 116.3 151 87.2 151C58 151 29 151 14.5 151L0 151Z" fill="#18988b" stroke-linecap="round" stroke-linejoin="miter"></path></svg>