<svg id="visual" viewBox="0 0 960 150" width="960" height="150" xmlns="http://www.w3.org/2000/svg" xmlns:xlink="http://www.w3.org/1999/xlink" version="1.1"><rect x="0" y="0" width="960" height="150" fill="#18988b"></rect><path d="M0 46L12.3 41.2C24.7 36.3 49.3 26.7 74 21C98.7 15.3 123.3 13.7 148 19C172.7 24.3 197.3 36.7 221.8 46C246.3 55.3 270.7 61.7 295.2 59.8C319.7 58 344.3 48 369 43.2C393.7 38.3 418.3 38.7 443 35.7C467.7 32.7 492.3 26.3 517 25.8C541.7 25.3 566.3 30.7 591 37.7C615.7 44.7 640.3 53.3 664.8 58.3C689.3 63.3 713.7 64.7 738.2 56.7C762.7 48.7 787.3 31.3 812 30.7C836.7 30 861.3 46 886 46C910.7 46 935.3 30 947.7 22L960 14L960 151L947.7 151C935.3 151 910.7 151 886 151C861.3 151 836.7 151 812 151C787.3 151 762.7 151 738.2 151C713.7 151 689.3 151 664.8 151C640.3 151 615.7 151 591 151C566.3 151 541.7 151 517 151C492.3 151 467.7 151 443 151C418.3 151 393.7 151 369 151C344.3 151 319.7 151 295.2 151C270.7 151 246.3 151 221.8 151C197.3 151 172.7 151 148 151C123.3 151 98.7 151 74 151C49.3 151 24.7 151 12.3 151L0 151Z" fill="#18988b"></path><path d="M0 69L12.3 69.3C24.7 69.7 49.3 70.3 74 69.5C98.7 68.7 123.3 66.3 148 65C172.7 63.7 197.3 63.3 221.8 58.5C246.3 53.7 270.7 44.3 295.2 42.8C319.7 41.3 344.3 47.7 369 47.2C393.7 46.7 418.3 39.3 443 37.8C467.7 36.3 492.3 40.7 517 42.3C541.7 44 566.3 43 591 44.3C615.7 45.7 640.3 49.3 664.8 49.3C689.3 49.3 713.7 45.7 738.2 43.2C762.7 40.7 787.3 39.3 812 41.3C836.7 43.3 861.3 48.7 886 55.2C910.7 61.7 935.3 69.3 947.7 73.2L960 77L960 151L947.7 151C935.3 151 910.7 151 886 151C861.3 151 836.7 151 812 151C787.3 151 762.7 151 738.2 151C713.7 151 689.3 151 664.8 151C640.3 151 615.7 151 591 151C566.3 151 541.7 151 517 151C492.3 151 467.7 151 443 151C418.3 151 393.7 151 369 151C344.3 151 319.7 151 295.2 151C270.7 151 246.3 151 221.8 151C197.3 151 172.7 151 148 151C123.3 151 98.7 151 74 151C49.3 151 24.7 151 12.3 151L0 151Z" fill="#2b8378"></path><path d="M0 84L12.3 79.7C24.7 75.3 49.3 66.7 74 63.5C98.7 60.3 123.3 62.7 148 66.2C172.7 69.7 197.3 74.3 221.8 72.3C246.3 70.3 270.7 61.7 295.2 61C319.7 60.3 344.3 67.7 369 67.8C393.7 68 418.3 61 443 63.2C467.7 65.3 492.3 76.7 517 83.5C541.7 90.3 566.3 92.7 591 89.7C615.7 86.7 640.3 78.3 664.8 74.2C689.3 70 713.7 70 738.2 69.7C762.7 69.3 787.3 68.7 812 72C836.7 75.3 861.3 82.7 886 85.2C910.7 87.7 935.3 85.3 947.7 84.2L960 83L960 151L947.7 151C935.3 151 910.7 151 886 151C861.3 151 836.7 151 812 151C787.3 151 762.7 151 738.2 151C713.7 151 689.3 151 664.8 151C640.3 151 615.7 151 591 151C566.3 151 541.7 151 517 151C492.3 151 467.7 151 443 151C418.3 151 393.7 151 369 151C344.3 151 319.7 151 295.2 151C270.7 151 246.3 151 221.8 151C197.3 151 172.7 151 148 151C123.3 151 98.7 151 74 151C49.3 151 24.7 151 12.3 151L0 151Z" fill="#336e66"></path><path d="M0 95L12.3 94.3C24.7 93.7 49.3 92.3 74 89.2C98.7 86 123.3 81 148 81.7C172.7 82.3 197.3 88.7 221.8 91.5C246.3 94.3 270.7 93.7 295.2 92.7C319.7 91.7 344.3 90.3 369 87.3C393.7 84.3 418.3 79.7 443 79.7C467.7 79.7 492.3 84.3 517 85.5C541.7 86.7 566.3 84.3 591 86C615.7 87.7 640.3 93.3 664.8 97.3C689.3 101.3 713.7 103.7 738.2 101.3C762.7 99 787.3 92 812 88.7C836.7 85.3 861.3 85.7 886 86.7C910.7 87.7 935.3 89.3 947.7 90.2L960 91L960 151L947.7 151C935.3 151 910.7 151 886 151C861.3 151 836.7 151 812 151C787.3 151 762.7 151 738.2 151C713.7 151 689.3 151 664.8 151C640.3 151 615.7 151 591 151C566.3 151 541.7 151 517 151C492.3 151 467.7 151 443 151C418.3 151 393.7 151 369 151C344.3 151 319.7 151 295.2 151C270.7 151 246.3 151 221.8 151C197.3 151 172.7 151 148 151C123.3 151 98.7 151 74 151C49.3 151 24.7 151 12.3 151L0 151Z" fill="#365a54"></path><path d="M0 116L12.3 113.2C24.7 110.3 49.3 104.7 74 104.2C98.7 103.7 123.3 108.3 148 112.5C172.7 116.7 197.3 120.3 221.8 119.7C246.3 119 270.7 114 295.2 109.2C319.7 104.3 344.3 99.7 369 99.8C393.7 100 418.3 105 443 106C467.7 107 492.3 104 517 105C541.7 106 566.3 111 591 110.8C615.7 110.7 640.3 105.3 664.8 103.2C689.3 101 713.7 102 738.2 106C762.7 110 787.3 117 812 120.5C836.7 124 861.3 124 886 120.3C910.7 116.7 935.3 109.3 947.7 105.7L960 102L960 151L947.7 151C935.3 151 910.7 151 886 151C861.3 151 836.7 151 812 151C787.3 151 762.7 151 738.2 151C713.7 151 689.3 151 664.8 151C640.3 151 615.7 151 591 151C566.3 151 541.7 151 517 151C492.3 151 467.7 151 443 151C418.3 151 393.7 151 369 151C344.3 151 319.7 151 295.2 151C270.7 151 246.3 151 221.8 151C197.3 151 172.7 151 148 151C123.3 151 98.7 151 74 151C49.3 151 24.7 151 12.3 151L0 151Z" fill="#364643"></path><path d="M0 125L12.3 125.7C24.7 126.3 49.3 127.7 74 126.3C98.7 125 123.3 121 148 120.7C172.7 120.3 197.3 123.7 221.8 127.5C246.3 131.3 270.7 135.7 295.2 136.2C319.7 136.7 344.3 133.3 369 131.3C393.7 129.3 418.3 128.7 443 129.8C467.7 131 492.3 134 517 134.7C541.7 135.3 566.3 133.7 591 131.3C615.7 129 640.3 126 664.8 126.3C689.3 126.7 713.7 130.3 738.2 130.8C762.7 131.3 787.3 128.7 812 127.7C836.7 126.7 861.3 127.3 886 128.5C910.7 129.7 935.3 131.3 947.7 132.2L960 133L960 151L947.7 151C935.3 151 910.7 151 886 151C861.3 151 836.7 151 812 151C787.3 151 762.7 151 738.2 151C713.7 151 689.3 151 664.8 151C640.3 151 615.7 151 591 151C566.3 151 541.7 151 517 151C492.3 151 467.7 151 443 151C418.3 151 393.7 151 369 151C344.3 151 319.7 151 295.2 151C270.7 151 246.3 151 221.8 151C197.3 151 172.7 151 148 151C123.3 151 98.7 151 74 151C49.3 151 24.7 151 12.3 151L0 151Z" fill="#333333"></path></svg>